<?xml version="1.0" encoding="utf-8"?>
<!-- Generator: Adobe Illustrator 22.0.0, SVG Export Plug-In . SVG Version: 6.00 Build 0)  -->
<svg version="1.1" id="_x2018_лой_x5F_1" xmlns="http://www.w3.org/2000/svg" xmlns:xlink="http://www.w3.org/1999/xlink"
	 x="0px" y="0px" viewBox="0 0 1864 825.7" style="enable-background:new 0 0 1864 825.7;" xml:space="preserve">
<style type="text/css">
	.st0{fill:#2B478B;}
	.st1{fill:#233862;}
	.st2{fill:#F99746;}
	.st3{fill:#ED7D2B;}
	.st4{fill:#FFB27D;}
	.st5{fill:#FFFFFF;}
	.st6{fill:#ED975D;}
	.st7{fill:#B0D0FF;}
	.st8{fill:#98BAF4;}
	.st9{fill:#A9453D;}
	.st10{fill:#E8945B;}
	.st11{fill:#F9DDBF;}
	.st12{fill:#F4A671;}
	.st13{fill:#2C3A64;}
	.st14{fill:#E2AF64;}
	.st15{fill:#ED985F;}
	.st16{fill:#EDBD77;}
	.st17{fill:#FFCF83;}
	.st18{fill:#FFF2E9;}
</style>
<g>
	<path class="st0" d="M1559.9,188.8c2.1-52.7-39.8-77.5-84.7-79.7c-2.3-0.1-41.5-0.2-43.8-0.2c-47.4,0-99,12.3-103.4,85.8
		c-2.9,47.3,22.3,76.4,95,76.4c2.7,0,42.4,0,45-0.1c20.7-0.8,37.2-4.5,50.1-10.7l36.3,32.3l-17.8-44.6
		C1552.2,233.4,1558.9,212.7,1559.9,188.8z"/>
	<path class="st0" d="M719.3,187.7c-2.4-60.5,48.2-87.3,100-87.3c5.3,0,216.6,0.1,221.9,0.5c46.8,3,92.7,21.2,97.1,93.3
		c2.9,48.2-20.8,79.1-88.1,83.1c-5,0.3-216.2,0.4-221.7,0.4c-26.8,0-47.6-4.2-63.5-11.8l-39.7,35.3l19.5-48.7
		C727.6,236.4,720.3,213.8,719.3,187.7z"/>
	<g>
		<g id="man_55_">
			<path class="st1" d="M1640.9,342.7l-46.2,87.6l-23.7-8.6l7.7,23.4l-46.3,139.5C1532.4,584.7,1506.8,407.4,1640.9,342.7z"/>
			<path class="st1" d="M1563.8,420.2c0,0-49.7,137.6-33.4,373c0,0,19.8,9.8,86.3-1.9C1683.6,779.6,1563.8,420.2,1563.8,420.2z"/>
			<g>
				<path class="st2" d="M1550.2,728.9c0,0,0.2,2.5,0.6,7.2c0.8,10.7,2.6,32.5,4.8,60.9c0.7,9.4,1.5,19.5,2.4,30.1h138.3
					c0.5-9.1,1-17.8,1.5-26.1c0.3-5.2,0.6-10.1,0.9-14.9l0,0c1.5-26.1,2.6-46.7,3.2-57.7c0-0.8,0.1-1.6,0.1-2.4
					c0.2-4.2,0.4-6.5,0.4-6.5l-6,0.4l-9.6,0.6l-38.3,2.4l-12,0.7l-18,1.1l0,0l-36.4,2.3L1550.2,728.9z"/>
				<path class="st3" d="M1550.2,728.9c0,0,0.2,2.5,0.6,7.2c0.8,10.7,2.6,32.5,4.8,60.9c0.7,9.4,1.5,19.5,2.4,30.1h138.3
					c0.5-9.1,1-17.8,1.5-26.1c0.3-5.2,0.6-10.1,0.9-14.9l0,0c1.5-26.1,2.6-46.7,3.2-57.7c0-0.8,0.1-1.6,0.1-2.4
					c0.2-4.2,0.4-6.5,0.4-6.5l-6,0.4l-9.6,0.6l-38.3,2.4l-12,0.7l-18,1.1l0,0l-36.4,2.3L1550.2,728.9z"/>
				<path class="st2" d="M1575.1,737c0,0,0.2,0.4,0.5,1.3c1.1,2.8,4.1,10.3,8.6,21.3c1.9,4.7,4.1,10,6.5,15.9
					c2.3,5.7,4.9,12,7.7,18.7c1.5,3.5,3,7.2,4.5,11c2.9,6.9,6,14.3,9.2,21.9h135.2c-3.9-15.7-6.4-29.4-6.8-38.4
					c-0.1-1.3-0.1-2.7-0.2-4.1c-1.1-21.2-4.3-52.6-6.4-72.7c-1.2-11.5-2.1-19.3-2.1-19.3L1688,705l-35.3,10l-16.7,4.7l-17.7,5l0,0
					l-35.9,10.2L1575.1,737z"/>
			</g>
			<path class="st4" d="M1599.5,378.3c38.4,12.1,104.7-20.6,104.7-20.6s-35.4-26.5-33.5-81.7l-29.7,23.9l-20.1,16.2
				c0,0,0.1,9.6,2.3,26.3c0.4,3.1,0.9,6.4,1.4,9.9c0.4,2.8-0.8,5.7-3.2,7.2C1607.4,368.2,1599.5,378.3,1599.5,378.3z"/>
			<path class="st5" d="M1545.9,734.6c1.2,1,2.5,1.5,4,1.5c14.4-0.2,56.4,7.8,91.9,4.2c30-2.9,56.5-11.8,85-24.5
				c3.8-1.7,12.5-6.3,12.3-10.6c-0.1-4.6-0.6-11.3-1.2-19.8c-2-29.4-5.5-80-2.1-138.3c0.6-10.9,0.9-21.6,1-32.2
				c0.3-79.1-15.4-148.6-46.9-172.1c0,0-22,12.3-37.2,17.2c-14.9,4.8-22.6,3.8-30.3-1.3c0,0-15,7.5-21.5,14.5
				c-14.9,16.2-26.5,37.8-34.2,68.7c-6.5,26.3-12.7,64.7-14.8,113.8C1551.2,577.9,1545,733.8,1545.9,734.6z"/>
			<path class="st0" d="M1585.8,777.5c0.8,8,1.7,15.9,2.7,23.6c0,0,79,30.8,175.8-30l-18.8-175l-13.2-122.8L1690,342.8
				c0,0-101.4,38.2-106.1,181.4C1582.2,554.4,1575.3,672.1,1585.8,777.5z"/>
			<path class="st1" d="M1585.8,777.5c0.8,8,1.7,15.9,2.7,23.6c0,0,79,30.8,175.8-30l-18.8-175l-67.2-65.3c0,0,0.3,2.3,0.7,6.3
				C1682.1,571.7,1691.5,737.1,1585.8,777.5z"/>
			<path class="st6" d="M1620.9,316.1c0,0,0.1,9.6,2.3,26.3c22.3-3.8,47.6-39.9,47.6-39.9c-11.4-3.3-21.3-3.9-29.8-2.7L1620.9,316.1
				z"/>
			<path class="st4" d="M1604.3,315.1c0,0,69.1,11.5,75.6-31.7c6.5-43.1,19.8-70.7-24.1-79.9c-43.8-9.2-54.9,6-60.6,19.9
				C1589.6,237.4,1586.5,311,1604.3,315.1z"/>
			<path class="st4" d="M1696.2,714.9c0,0,0.6,12.3-1.4,15.8c-13.3,23.2-25.5,19.4-7.7,49.5c0,0,8.3,11.8,14.4,3.3
				s-1.8-14.1,7.9-25.2c11.2-12.9,11.1-13.1,6.9-26.7l0.7-14.2L1696.2,714.9z"/>
			<path class="st0" d="M1709.9,730.5c-11.9-2.5-23.4-8.4-23.4-8.4s10.1-114.4,9.8-125.3c-0.3-11-46.7-158.9-46.7-158.9l40.3-95.1
				c0,0,56.7,32,62.9,82c7.7,61.8,5.4,155,5.5,170.4c0.3,45.9-30.8,135.4-30.8,135.4S1719.3,732.5,1709.9,730.5z"/>
			<path class="st0" d="M1679.9,279.3c0,0-7.1-1.2-5.9-11c1.1-9.8,1.1-22.5-6.8-20.1s-8.3,8.7-11.6,5c-3.3-3.7-3.3-19.4-26.9-20.4
				c-23.6-1.1-33.2,7.1-44.2,2.3s-11.6-21.5-11.6-21.5s3.1,5.9,7.8,7.8c0,0-18.3-25.1,2.9-42.3c21.2-17.2,42.9-5.9,55.1-5.2
				c27.1,1.6,44.5,3.3,53.4,21C1700.9,212.8,1697.3,262.2,1679.9,279.3z"/>
			<path class="st4" d="M1699.3,731.2c0,0-10.1,2.2-12.2,4.5c-6.8,7.4-11.9,9.1-11.1,10.9c1.6,3.8,9.5,0.3,15-4
				C1696.5,738.4,1699.3,731.2,1699.3,731.2z"/>
			<path class="st1" d="M1690,342.7l-46.2,87.6l-23.7-8.6l7.7,23.4l-46.3,139.5C1581.5,584.7,1555.9,407.4,1690,342.7z"/>
		</g>
		<path class="st5" d="M1599.6,292c0,0,2.7,7.1,9.4,7.3c6.7,0.2,11.9-6.3,11.9-6.3S1606.3,289.6,1599.6,292z"/>
	</g>
	<g>
		<g>
			<path class="st4" d="M930.8,509.5c0,0,11-13.4,17-15.3c5.9-1.9,17.4-10.8,18.9-7.1c1.5,3.7-7.7,9.3-7.2,13.5s29.3,10.9,29.1,15.3
				c-0.2,4.4-6.8,15.1-17.8,13.9c-11-1.2-38.9-7.8-44.6-5C920.5,527.7,930.8,509.5,930.8,509.5z"/>
			<path class="st7" d="M633.7,444.4c16.3,21.9,35.3,39.1,54.9,52.7c62.2,43.3,129.7,49.7,129.7,49.7c16.2-5.2,65.8-10.6,95.2-15.3
				l0,0c12.8-2.1,21.7-4,22.3-5.7l-0.7-25.6c0,0-107.7-5.7-125.6-14c-28.1-24.2-53-55.7-69.2-80.3c-13.7-20.8-29-36.1-54.2-45.1
				C649.5,347.9,583.2,376.5,633.7,444.4z"/>
			<path class="st8" d="M683.1,481l5.5,16.1c62.2,43.3,129.7,49.7,129.7,49.7c13,0,65.8-10.6,95.2-15.3c-1.2,0.1-79.9,6.3-97.3,4.5
				c-17.5-1.8-99.2-72.6-99.2-72.6L683.1,481z"/>
			<path class="st0" d="M721.4,714.2C721.4,714.2,721.4,714.2,721.4,714.2v0.2c0,0.2,0,0.5-0.1,0.8c0,0.2,0,0.5-0.1,0.7
				c0,0.2,0,0.5-0.1,0.7c0,0.5-0.1,0.9-0.1,1.4c-0.2,2.7-0.5,5.6-0.7,8.7c0,0.4-0.1,0.9-0.1,1.3c-0.1,1.6-0.3,3.3-0.4,5
				c0,0.6-0.1,1.2-0.1,1.8c0,0.1,0,0.3,0,0.4c0,0.5-0.1,1-0.1,1.4s-0.1,0.9-0.1,1.3c0,0.4-0.1,0.9-0.1,1.3c-0.2,1.9-0.3,3.9-0.5,5.9
				c0,0.3,0,0.6-0.1,0.9c0,0.3-0.1,0.7-0.1,1c0,0.7-0.1,1.4-0.2,2.1c-0.5,6.2-1,12.8-1.5,19.5c-0.1,1.1-0.2,2.3-0.3,3.4
				c-0.1,1.5-0.2,3.1-0.4,4.7c-0.2,2.8-0.5,5.7-0.7,8.6c-0.2,2.6-0.4,5.3-0.6,8c-0.2,2.2-0.3,4.3-0.5,6.5c-0.2,2.7-0.4,5.5-0.7,8.3
				c-0.3,4.3-0.7,8.7-1,13.1c-0.1,1.9-0.3,3.8-0.5,5.8H578.7c-3.1-53.6-5.5-98.5-6.4-115.2c-0.2-4.5-0.4-6.9-0.4-6.9l88.9,5.5l0,0
				l20,1.2L721.4,714.2L721.4,714.2z"/>
			<path class="st1" d="M723.2,691.2c0,0-0.1,1.3-0.3,3.7c-0.3,3.8-0.8,10.5-1.5,19.4v0.1v0.1c0,0.2,0,0.5-0.1,0.8
				c0,0.2,0,0.5-0.1,0.7c0,0.2,0,0.5-0.1,0.7c0,0.5-0.1,0.9-0.1,1.4c-0.2,2.7-0.5,5.6-0.7,8.7c0,0.4-0.1,0.9-0.1,1.3
				c-0.1,1.6-0.3,3.3-0.4,5c0,0.6-0.1,1.2-0.1,1.8c0,0.1,0,0.3,0,0.4c0,0.5-0.1,1-0.1,1.4s-0.1,0.9-0.1,1.3c0,0.4-0.1,0.9-0.1,1.3
				c-0.2,1.9-0.3,3.9-0.5,5.9c0,0.3,0,0.6-0.1,0.9c0,0.3-0.1,0.7-0.1,1c0,0.7-0.1,1.4-0.2,2.1c-0.5,6.2-1,12.8-1.5,19.5
				c-0.1,1.1-0.2,2.3-0.3,3.4c-0.1,1.5-0.2,3.1-0.4,4.7c-0.2,2.8-0.5,5.7-0.7,8.6c-0.2,2.6-0.4,5.3-0.6,8c-0.2,2.2-0.3,4.3-0.5,6.5
				c-0.2,2.7-0.4,5.5-0.7,8.3c-0.3,4.3-0.7,8.7-1,13.1c-0.1,1.9-0.3,3.8-0.5,5.8H578.7c-3.1-53.6-5.5-98.5-6.4-115.2
				c-0.2-4.5-0.4-6.9-0.4-6.9l115.9-10.6L723.2,691.2z"/>
			<path class="st0" d="M689,691.2c0,0-0.5,1.1-1.3,3.2c-1,2.6-2.6,6.6-4.7,11.8c-0.7,1.7-1.4,3.5-2.2,5.5
				c-9.8,24.7-27.3,68.6-45.5,115.4H498.7c4.8-46.1,11.9-93.9,25.3-128.1c11.3-28.8,27-48,49.5-48.6
				C661.8,647.9,689,691.2,689,691.2z"/>
			<path class="st4" d="M651,379.2c-13,6.8-25.6,7.3-36.6,4.9c-10-2.1-18.7-6.5-24.8-10.5c-6.3-4-10-7.5-10-7.5s0.4-0.6,1.2-1.9
				c3.8-6.6,15.5-30.1,10.3-68c-0.1-0.5,3.7,0.2,9.4,1.5c16.9,4,50.8,13.6,52.3,14h0.1c0,0,0.4,8,1.8,22.3c0.1,1.3,0.2,2.6,0.4,3.9
				c0.2,1.7,0.3,3.5,0.6,5.3C657.1,358.1,651,379.2,651,379.2z"/>
			<path class="st6" d="M654.6,334.1c-25.2,5.8-62.8-31.4-62.8-31.4c2.7-2,5.6-3.7,8.6-4.9c16.9,4,50.8,13.6,52.3,14h0.1
				C652.8,311.8,653.2,319.8,654.6,334.1z"/>
			<path class="st4" d="M663.1,309.8c0,0-10.4,3.7-23.6,5.5c-19.3,2.6-44.7,1.1-52.7-22.3c-13.4-39.3-30.6-62.9,8.9-78.9
				c21.2-8.6,34.7-9.1,43.9-5.8c8,2.8,12.7,8.5,16.3,14.1C663.7,234.4,679.1,302.9,663.1,309.8z"/>
			<path class="st9" d="M687.1,225.5c-22.9,16.5-54.6,0.3-64.4,4.7c-9.8,4.4-11.6,20.9-11.8,26.1s-0.9,9.7-14.2,6.5
				c-2.2-0.5-3.8-0.4-4.8,0.3c-5.5,3.3,1.5,19.2,3.7,22.7c0,0,3.1,11.4-3.7,17c-0.8,0.7-14.2,6.5-46.5-42.9
				c-5.1-7.8-9.9-25.2-2.1-42c7.8-16.8,40.5-33.1,68.3-41.7c10.4-3.2,18.1-3.1,24.1-0.9c10.1,3.7,15.4,13.2,20.7,22.7
				C665.3,213.9,687.1,225.5,687.1,225.5z"/>
			<path class="st7" d="M734.7,655.5c-1.8,24.3-7,41.6-18.2,41.6c0,0-49.9,17.6-109.6,18c-11.7,0.1-28.2-2.2-41.9-4.5
				c-14-2.4-25.1-4.8-25.1-4.8c-12-2.8-25.2-10.2-23.5-23.9c1-7.8,1.7-17.8,2.2-29.6c1.3-31.7,1.1-75.4,1.3-117.2
				c0.1-25.7,0.4-50.6,1.2-71.7c0,0-11.8-82.7,1.3-96.3c15.3-15.9,60.3-20.8,63.2-20.1c0.8-0.2,1.7-0.4,2.6-0.5
				c0,0,38.3,21.6,66.8,5.6c0,0,0.3,0.1,0.8,0.1c6.9,1.1,41.6,9.1,53.5,21.7c4.1,4.3,20.6,31.1,21,60.4c0.6,40.9-1,87.3-1,87.3
				c0.4,6.6,1.1,15.2,1.9,25c0.8,10.4,1.8,22.2,2.5,34.4c0.4,6.2,0.8,12.5,1,18.8C735.6,619.5,735.9,639.1,734.7,655.5z"/>
			<path class="st8" d="M585.7,347.2c0,0,42.4,43.8,72.7,34.8c0,0,4-5.9-9.6-7.8C635.2,372.3,620.4,373.1,585.7,347.2z"/>
			<path class="st5" d="M663.4,284.4c0,0,0.8,5.1-11,9.2c0,0-9.9,3.4-11.7-1.8C640.7,291.8,648.6,284.2,663.4,284.4z"/>
			<path class="st8" d="M558.8,501c0,0,0.1,118.3-40.2,151.5c1.3-31.7,1.1-75.4,1.3-117.2L558.8,501z"/>
			<path class="st4" d="M434.8,722.5c0,0-20.5,32.2-21.7,44.6c-0.8,8.4,1.1,41.5,5.3,41.6c5.9,0.2,11.8-20.4,14.1-25.8
				c2.3-5.3,5-9.5,7.2-9.5c2.3,0-5,20.6,0,18.3s13.3-21.3,14.1-25.9c0.8-4.6-4.5-19.2-1.9-25C454.5,734.9,434.8,722.5,434.8,722.5z"
				/>
			<path class="st7" d="M526.3,362.9c0,0-27.7,13.1-51,110.1c-17.5,73.2-51.1,259.9-51.1,259.9l28.4,11.7c0,0,104-238.7,118.9-272.3
				C586.3,438.7,526.3,362.9,526.3,362.9z"/>
		</g>
	</g>
	<g>
		<path class="st0" d="M291.4,234.7c0,0-45.7-5.6-68.7,37c-23,42.5-21.1,104.1-43.4,133.2s3.7,56.6,3.7,56.6l173.5,5.9
			c0,0,12.1-32.5,0-71.5C344.5,356.9,403.5,240.6,291.4,234.7z"/>
		<path class="st4" d="M438.3,750.8c-1.8,6.8-7.6,22.1-12.1,22.1c-3.7,0-5-18.8-9.7-22.7c-6.9-5.8-12.5-17.9-13.4-20.8
			c-1.8-6.1-3.6-7.3-3.6-7.3l0,0l0,0c0,0-54.9-100.3-59.2-126c-1.4-8.4-5-25.1-9.2-43.9c-4.6-20.4-9.9-43.2-13.9-60.3
			c17.5-3.4,36.9-4.6,52.7-4.9c3.2,20.8,6.1,42,8.6,60.5c3.7,27.5,6.5,48.8,8.2,53.3c4.8,12.5,17.9,80,30.3,115.1
			c1.4,3.4,5.4,12.4,9.9,15.5C432.4,735,440.1,744,438.3,750.8z"/>
		<path class="st4" d="M338.9,651.7c-30.3-96.9,30.7-95.6,27.5-144.1S325.7,407,325.7,407s-1.3-0.1-3.7-0.4c-1.3-0.1-2.4-1-2.8-2.2
			c-1.4-3.8-1.8-12.2-1.8-21c0-13.3,1.1-27.5,1.1-27.5l-45-8.9l-2.7-0.5c0.1,22.6-4.2,39.7-8.8,49.2c-2.2,4.5-6.5,7.6-11.5,8.3
			c-9.7,1.4-26.7,4.2-38.2,9c-5.6,2.3-9.8,5.1-11.3,8.4c-12.4,27.2-24.7,95.8-33.4,144.7c-4.8,27.3-8.5,48.4-10.4,52.9
			c-5.4,12.5-21.8,81.4-35.8,115.4l17.9,5.4c0,0,59-97.9,64.4-123.4c1.8-8.3,6-24.9,11.1-43.5c0.8-2.8,1.5-5.7,2.3-8.6
			c8.8,24,13.4,35.1,13.1,45.4c-0.3,14.7-10.3,28-31.2,74.9C187.3,710.6,369.8,750.7,338.9,651.7z"/>
		<path class="st10" d="M318.5,356c0,0-1,14.2-1.1,27.5c-25.2-0.7-38.5-23.7-44-36.4L318.5,356z"/>
		<path class="st4" d="M326.9,368.7c0,0-59.6,1-59.6-36.1s-7.8-62,30.3-64.2c38.1-2.2,45.5,12,48.5,24.3
			C349,305.1,342.4,367.5,326.9,368.7z"/>
		<path class="st0" d="M344.2,272c-9.2-11.1-16.2-8.7-20.1-5.4c-32-17.7-53.6,8.6-53.6,8.6c-4,26.6-23.2,41.9-23.2,41.9
			s10.6,5.6,35.9,0.3c30-6.4,38.3-40.2,39.5-44.6c3.6,3.3,10.8,10.4,13,17.3c3,9.5,4.3,28.9,10,28.3
			C345.8,318.4,358.1,288.8,344.2,272z"/>
		<path class="st4" d="M122.6,731.5c0,0-5.4,12.8-11.1,16.4c-5.7,3.6-13.7,12.2-12.2,19.1c1.5,6.9,3,17.6,10.1,17.6
			c7.2,0,23.8-31.6,25.9-37.6s3.9-7.2,3.9-7.2L122.6,731.5z"/>
		<path class="st11" d="M388,826.7H285.6c-0.5,0.1-0.9,0.3-1.3,0.4c0-0.1,0-0.3-0.1-0.4H165.5c5.3-31.6,11.2-65.2,17.3-98.4
			c9.7-52.4,31.2-80.6,39.7-93.6l0,0l0,0c0.1-0.1,0.1-0.2,0.2-0.3c2.3-3.6,3.5-5.9,3.2-7.3c-0.1-0.3-0.3-0.6-0.5-0.8
			c0-0.1-0.1-0.1-0.1-0.1c-21.6-15.3-12.2-41.6-10.8-51c-0.1,0-0.2,0.1-0.3,0.1c-6.5,1.7-25.2,5-47.2-5.2c-1.6-0.8-3.3-1.6-5-2.5
			c1.5-7.2,3-14.8,4.7-22.6c0.8-3.8,1.6-7.7,2.4-11.6c3.1-14.8,6.5-30,10.1-44.5c2.3-9.5,4.7-18.6,7.1-27.2
			c4.7-16.5,9.6-30.7,14.5-40c0.2-0.4,0.5-0.9,0.8-1.3l0,0c0.7-0.9,1.6-1.7,2.7-2.5c-0.1-0.1-0.1-0.2-0.1-0.2
			c2.5-1.8,5.5-3.4,8.7-4.8c0,0,0.1,0,0.1-0.1c14-6,32.2-8,32.2-8l0,0c0.5,1.2,14.9,36.4,19.3,42c7.3,9.1,16,14.9,24.9,18.2l0,0
			c11.8,4.3,23.9,4.1,33.3,1.1c12.1-3.9,19.7-12.4,16.7-22c-2.6-8.3-15.9-34.5-17.5-37.4l0,0c-0.1-0.1,2.8,0.2,3.6,0.3h0.1h0.1
			c8.9,1.2,15.1,2.1,19.6,2.8c8.8,1.5,11,2.6,13.3,4.3c0.8,0.8,1.6,1.7,2.5,2.8c7.3,9.1,15.5,27.8,16.2,58.7
			c0.1,6.1,3.2,41.1,1.8,76l0,0c-1.5,36.3-7.8,72.3-27.4,75.5c-1.3,0.2-2.6,0.3-3.9,0.2c-0.1,0-0.2,0-0.3,0.1l0,0
			c-0.4,0.5,0.4,2.7,2,6.5c0.4,1,0.9,2.1,1.5,3.3c7,15.8,22.3,49,26.9,90.9C381.7,762,385,795.3,388,826.7z"/>
		<path class="st5" d="M309.7,346.8c0,0,1.1,4.6,12.5,3.7c0,0,9.6-0.7,9.2-5.7C331.5,344.7,322.2,341.3,309.7,346.8z"/>
		<path class="st4" d="M135.4,747c0,0-2,14.4-5.8,17.8c-3.8,3.3-4.4,9.3-8.3,6.1C117.5,767.7,135.4,747,135.4,747z"/>
		<path class="st2" d="M388,826.7H165.5c5.3-31.6,11.2-65.2,17.3-98.4c9.7-52.4,31.2-80.6,39.7-93.6l0,0l0,0
			c0.1-0.1,0.1-0.2,0.2-0.3c2.3-3.6,3.5-5.9,3.2-7.3c-0.1-0.3-0.3-0.6-0.5-0.8c0.1,0.1,0.3,0.3,0.7,0.5c4,3,23.9,16.8,58.2,14.7
			c20.7-1.2,38.4-3.3,50.4-5c7.3-1,12.5-1.9,14.9-2.3c0.4,1,0.9,2.1,1.5,3.3c7,15.8,22.3,49,26.9,90.9
			C381.7,762,385,795.3,388,826.7z"/>
		<path class="st3" d="M225.3,626c0,0,58.9,24.6,122.5,1.4l3.2,10c0,0-65.4,22.7-128.3-3.1L225.3,626z"/>
	</g>
	<g>
		<g>
			<path class="st12" d="M1121.8,722l17.2,3.2c0,0,47-72.4,48.3-94.5c1.3-21.1,43.6-113.4-5.9-171c-2.2-2.6-4.7-5.2-7.3-7.6
				c-0.1-0.1-0.2-0.2-0.3-0.3c0,0-0.1,0.1-0.2,0.4c-1,1.7-4.9,8.8-9.6,24.5c-7.2,24.6-16.2,70.2-18.3,149.1
				C1145.7,625.8,1134.2,693.2,1121.8,722z"/>
			<path class="st12" d="M1121.8,722c0,0-18.4,20.8-19,29.2s6.7,19,14.9,20.8c8.2,1.8,3.1-11.2,4.3-16.4c1.2-5.2,6.6-13.1,6.2-10.8
				c-0.3,2.4-3.6,11.6-2.6,13.1s3.6,1.7,4.6-3.2c1-5,9.2-10.7,7.6-16s-0.3-9.4,1.9-16.5c2.2-7.1,6-15.7,6-15.7l-13.3-2.8L1121.8,722
				z"/>
		</g>
		<path class="st13" d="M1246,347.1c0,0,0.4,8.8-4.8,10.5c-5.3,1.7,5.4,20.6,4.6,33.4s-6.5,17.9-6.5,17.9s2.7-7,1.2-11.4
			c0,0,0.2,9-6.4,13.6s-4.8,8.5-4.8,8.5s-14.9-4.5-15.3-15.6c0,0-0.6,5.1-0.1,7.1c0,0-12.9-9.7-13.5-20.8
			c-0.6-11.1,10.1-20.5,15-20.7s15.8-9.8,15.5-13.4C1230.6,352.5,1246,347.1,1246,347.1z"/>
		<path class="st14" d="M1204.8,284.5c8.7-13.2,43.1-5.8,76.9,16.5s54.2,51,45.5,64.2s-43.1,5.8-76.9-16.5
			C1216.5,326.4,1196.1,297.7,1204.8,284.5z"/>
		<path class="st2" d="M1280.3,753.9c-4.1,21.9-8.8,47.2-13.5,73.2H1151c0.1-1,0.1-1.9,0.2-2.8c1-12.8,2.3-24.6,3.8-35.4
			c5-51.7,10.4-77.6,13.6-89.6c1.9-7,3.1-9.4,3.1-9.4l17.1,4.5l0,0l22.5,5.9l5.6,17.7l5.4,17.2l53.2,17.1L1280.3,753.9z"/>
		<path class="st2" d="M1341.4,766.5c-0.7,11-1.5,33.6-2.5,60.6h-123.3c-1.3-8.5-2.5-16.8-3.7-24.8c-1,0-10.3-63.1-33.2-99.1l0,0
			c-2.1-3.2-4.2-6.3-6.5-9c-2.1-2.5,11.2-0.6,16.6,0.2l0,0c1.3,0.2,2.1,0.4,2.1,0.4c13.1,3.5,34.8,0.4,56.4-4.6l0,0
			c18.1-4.2,36.1-9.8,48.7-14c10.5-3.5,17.3-6.1,17.3-6.1s1.3,1.1,3.3,3.5c4.3,4.9,11.7,15.2,17.4,31.6
			C1339.3,720.2,1343,740.4,1341.4,766.5z"/>
		<path class="st13" d="M1223.8,286l60.8,92.2c0,0,7-13.6,14.7-8.7c12,7.6,37.9-18.4,32.5-55.2c-0.4-2.4-0.8-4.7-1.2-6.9
			c-12.1-17.5-25.6-36.9-35.3-50.6C1267.4,240,1223.8,286,1223.8,286z"/>
		<path class="st4" d="M1197.1,472.3c8.5,7.8,19.5,14.8,33.9,20.2c53.7,20.3,81.3-23.6,93.6-54.7c-7-5.4-13.9-7.3-18-8.3
			c-3.9-1-8.1-1.9-11.6-2.6c-5.6-5.6-12.2-26.4-10.1-56.9l-2.7,0.3l-45.3,6c0,0,0.1,14.2-0.7,27.4c-0.6,10.4-1.9,20.2-4.1,22.3
			c-3.5,0.3-5.6,0.5-5.6,0.5l0,0C1225.7,427.5,1210.2,446.6,1197.1,472.3z"/>
		<path class="st11" d="M1172.1,503.8c0.1,1.2,0.2,2.4,0.3,3.7c4.4,34.2,10.7,144.6,10.7,144.6c-10.7,21,148.2,69.8,155.1,49.7
			c10.3-15.7,0-45.7-8.9-68.8c-2.2-5.6-2.7-11.6-4.6-16c-1.2-2.8-2.2-5.7-3-8.6c-1.8-7.4-2-15.1-0.5-22.6
			c4.1-19.9,9.8-38.4,14.6-53.4c2.3-7.3,4.4-13.7,6.1-19.1c-2.3-3.2-4.6-6.2-6.6-9c-3.2-4.3-5.9-8.3-7.7-12c-2-4.1-2.8-7.8-1.9-11.5
			c0.7-2.8,1.7-5.5,2.9-8.2c0.5-1.3,1.1-2.5,1.8-3.8c6.5-13.2,16.3-23.9,16.3-23.9c-12.8-10.6-40-15.3-40-15.3s-0.4,1.5-1.2,3.8
			c-2.9,9.5-10.8,34-15.3,37.6c-5.6,4.5-83.5,7.6-84.7-1.4c-1.2-8.8,20.2-41.7,21-42.9l0,0c-0.8,0.1-1.7,0.1-2.5,0.2
			c-4,0.3-7.6,1-10.9,1.1c-21.2,0.9-25,6.7-25,6.7C1199.3,448.1,1170.3,471.4,1172.1,503.8z"/>
		<path class="st15" d="M1236.9,376.4c0,0,0.1,14.1-0.7,27.4c25.1,0.9,39.8-21.1,46-33.4L1236.9,376.4z"/>
		<path class="st4" d="M1227.7,388.4c0,0,59.2,4.7,61.6-32.1c2.4-36.9,11.6-61.1-26-65.7c-37.7-4.6-45.9,9-49.7,21.1
			C1209.7,323.8,1212.4,386.2,1227.7,388.4z"/>
		<path class="st13" d="M1216.6,291.3c9.9-10.5,16.6-7.6,20.3-4.1c33.5-15.7,52.7,11.9,52.7,11.9c2.3,26.7,20.4,43.1,20.4,43.1
			s-11.2,6-35.7-2c-7.5-2.4-13.9-8.3-19.3-15.2c9,17.5,21.9,30.6,21.9,30.6c-28.9-15.6-38.2-57.7-39.1-62.2c-3.8,3-11.4,9.6-14,16.4
			c-3.6,9.2-6.1,28.5-11.7,27.4C1212.2,337.2,1201.8,307,1216.6,291.3z"/>
		<path class="st16" d="M1333,332.4c0,0,27.5-54.8-10.9-76.4c-38.5-21.6-66.6-13.1-87.7,13.3L1333,332.4z"/>
		<path class="st17" d="M1336,325.4c-1.2-1.2-2.3-2.4-3.6-3.6l0,0c-11.9-11.6-27-23.4-44.4-34.3c-14-8.7-27.9-15.8-41-21.2
			c-2.6-1.1-5.1-2.1-7.6-3c-29.9-11-54.1-11.8-61.4-0.1c-7.7,12.3,5.3,35.3,30.9,58.7l0,0c-0.1-0.5-0.1-1.1-0.2-1.6
			c0-0.6-0.1-1.2-0.1-1.9c0-0.5,0-1-0.1-1.4c0-0.9,0-1.7,0-2.6c0-0.3,0-0.5,0-0.8c0-0.4,0-0.8,0-1.2c0-0.4,0-0.8,0.1-1.2
			c0-0.2,0-0.4,0-0.7c0-0.1,0-0.3,0-0.4c0-0.2,0-0.4,0.1-0.5c0-0.2,0-0.3,0-0.5c0-0.1,0-0.2,0-0.3c0-0.3,0.1-0.5,0.1-0.8
			s0.1-0.5,0.1-0.8c0-0.2,0.1-0.5,0.1-0.8c0.1-0.4,0.2-0.8,0.2-1.1v-0.1c0.1-0.4,0.2-0.8,0.3-1.2v-0.1c-2.7-5.7-3.2-10.7-1-14.3
			c2.6-4.1,8.4-5.8,16.4-5.3l0,0c0.2,0,0.4,0,0.6,0.1l0,0c2.9,0.2,6.1,0.7,9.6,1.5l0,0c0.8,0.2,1.6,0.4,2.5,0.6c3,0.8,6.2,1.8,9.5,3
			l0,0c9.8,3.5,20.6,8.8,31.4,15.6c4.5,2.8,8.8,5.7,12.8,8.7c0.4,0.3,0.8,0.6,1.2,0.9c18.4,14,30.6,29,32,39.3l0,0
			c0.4,2.8,0,5.2-1.3,7.2c-0.1,0.2-0.2,0.3-0.3,0.5l0,0c-0.8,1.1-1.9,2-3.2,2.8c0,0-0.1,0-0.1,0.1c-0.1,0.1-0.2,0.1-0.3,0.2l0,0
			c-1.4,0.7-3,1.2-4.8,1.5l0,0c-0.3,0.3-0.7,0.5-1,0.8c-0.3,0.2-0.7,0.5-1,0.7c0,0,0,0-0.1,0c-0.2,0.1-0.4,0.3-0.6,0.4
			s-0.4,0.3-0.7,0.4c-0.2,0.1-0.4,0.2-0.7,0.4c-0.2,0.1-0.4,0.2-0.6,0.3c-0.3,0.1-0.6,0.3-0.9,0.4c-1.4,0.6-2.7,0.9-4,1.1
			c-0.2,0-0.3,0-0.5,0s-0.3,0-0.5,0c-0.3,0-0.7,0-1,0c-0.4,0-0.8-0.1-1.1-0.1c-0.2,0-0.4-0.1-0.5-0.1c-0.2-0.1-0.5-0.2-0.7-0.2
			c-0.5-0.2-0.9-0.3-1.3-0.6c-0.1-0.1-0.3-0.2-0.4-0.2c-1.4-0.9-2.7-1.1-4-1c-0.1,0-0.3,0-0.4,0c-0.2,0-0.4,0.1-0.6,0.1l0,0
			c-0.2,0-0.3,0.1-0.5,0.1c-0.1,0-0.3,0.1-0.4,0.1l0,0c-0.1,0-0.1,0-0.1,0.1l0,0c-0.2,0.1-0.4,0.2-0.6,0.3c-0.1,0-0.2,0.1-0.3,0.2
			c-0.1,0-0.2,0.1-0.3,0.2c-0.2,0.1-0.4,0.2-0.5,0.3c-0.1,0.1-0.3,0.2-0.4,0.3c-0.2,0.1-0.3,0.2-0.5,0.4c-0.2,0.1-0.3,0.3-0.5,0.4
			c-0.3,0.3-0.6,0.6-1,0.9c-0.1,0.1-0.1,0.1-0.2,0.2s-0.2,0.2-0.2,0.3c0,0,0,0-0.1,0.1c2.9,1.2,5.7,2.3,8.5,3.3
			c9,3.3,17.4,5.6,25.1,7l0,0c17.7,3.2,30.9,1.1,36-7C1365,364.8,1355.7,345.8,1336,325.4z"/>
		<path class="st2" d="M1317.1,431.7c0,0-37,23.6-46.4,73.4l-11.2-3.5c0,0,4.3-35.5,47.1-72.1L1317.1,431.7z"/>
		<path class="st2" d="M1186.6,506.3l11.7,0.8c-2.3-43.2,19.3-72.6,25.7-80.4c-4,0.3-7.7,0.7-10.9,1.1
			C1182.4,472.2,1186.6,506.3,1186.6,506.3z"/>
		<path class="st2" d="M1269.6,532.7c0.7-3.1,7.9-33,7.9-33s1.6-9.3-14.8-10.3c-16.4-0.9-74.7-4-74.7-4s-7.9,4.8-8.1,14.6
			c-0.1,9.8-8,66.1-8,66.1l-3.3,133.1l172.8,67.2c0,0,12.2-62.5-1.5-106.1c-8-25.4-18.2-52-18.2-52S1258.5,579.7,1269.6,532.7z"/>
		<g>
			<g>
				<path class="st3" d="M1271.2,500.7c0.8-2.6-0.6-5.3-3.2-6.2c-2.6-0.8-5.3,0.6-6.2,3.2c-0.8,2.6,0.6,5.3,3.2,6.2
					C1267.6,504.8,1270.3,503.3,1271.2,500.7z"/>
				<path class="st3" d="M1270.3,500.5c0.8-2.6-0.6-5.3-3.2-6.2s-5.3,0.6-6.2,3.2c-0.8,2.6,0.6,5.3,3.2,6.2
					S1269.5,503.1,1270.3,500.5z"/>
			</g>
			<path class="st3" d="M1268.7,499c0-0.4-0.3-0.7-0.7-0.7c-0.4,0-0.7,0.3-0.7,0.7c0,0.4,0.3,0.7,0.7,0.7
				C1268.4,499.7,1268.7,499.4,1268.7,499z"/>
			<path class="st3" d="M1264,499c0-0.4-0.3-0.7-0.7-0.7c-0.4,0-0.7,0.3-0.7,0.7c0,0.4,0.3,0.7,0.7,0.7S1264,499.4,1264,499z"/>
		</g>
		<g>
			<g>
				<path class="st3" d="M1198.9,494.5c0.8-2.6-0.6-5.3-3.2-6.2c-2.6-0.8-5.3,0.6-6.2,3.2c-0.8,2.6,0.6,5.3,3.2,6.2
					C1195.3,498.5,1198.1,497.1,1198.9,494.5z"/>
				<path class="st3" d="M1198.1,494.2c0.8-2.6-0.6-5.3-3.2-6.2c-2.6-0.8-5.3,0.6-6.2,3.2c-0.8,2.6,0.6,5.3,3.2,6.2
					C1194.5,498.3,1197.3,496.8,1198.1,494.2z"/>
			</g>
			<path class="st3" d="M1196.5,492.8c0-0.4-0.3-0.7-0.7-0.7c-0.4,0-0.7,0.3-0.7,0.7c0,0.4,0.3,0.7,0.7,0.7
				C1196.1,493.5,1196.5,493.1,1196.5,492.8z"/>
			<path class="st3" d="M1191.8,492.8c0-0.4-0.3-0.7-0.7-0.7c-0.4,0-0.7,0.3-0.7,0.7c0,0.4,0.3,0.7,0.7,0.7
				S1191.8,493.2,1191.8,492.8z"/>
		</g>
		<path class="st13" d="M1324.9,354.1c0,0,0.4,8.8-4.8,10.5c-5.3,1.7,5.4,20.6,4.6,33.4s-6.5,17.9-6.5,17.9s2.7-7,1.2-11.4
			c0,0,0.2,9-6.4,13.6s-4.8,8.5-4.8,8.5s-14.9-4.5-15.3-15.6c0,0-0.6,5.1-0.1,7.1c0,0-12.9-9.7-13.5-20.8
			c-0.6-11.1,10.1-20.5,15-20.7s15.8-9.8,15.5-13.4C1309.4,359.5,1324.9,354.1,1324.9,354.1z"/>
		<path class="st4" d="M1324.8,647.6c0,0-17.7,11.2-20.3,11.1c-6.1-0.2-18.1-13.5-28.1-7.4s-19.8,16.4-16.3,20.5s15.2-0.7,20.8,0.1
			c5.6,0.8,19.5,7.7,29.3,4.5c9.4-3.1,29.7-15.9,29.7-15.9L1324.8,647.6z"/>
		<path class="st4" d="M1346.6,444.8c0,0,65.9,77.9,87.7,121.7c0,0-26.2,57.1-111.3,103.5c0,0-3.8-0.8-9.5-4.9
			c-9-6.4,1-11.1,2.9-12.4c21.6-14,59.3-74.2,60.4-79.4s-47.2-52.1-61.9-69.4C1300.2,486.6,1323.7,435.9,1346.6,444.8z"/>
		<path class="st18" d="M1246,367.8c0,0-8.8,5.3-15.1,4.7c-6.2-0.6-9.6-8.1-9.6-8.1S1233.4,362.6,1246,367.8z"/>
		<path class="st11" d="M1346.6,444.8l29.6,28.9c0,0,0.8,52.5-44,58c0,0-44.3-39.2-22.3-69.9
			C1331.8,431.2,1346.6,444.8,1346.6,444.8z"/>
		<path class="st11" d="M1188.1,434.5c0,0-22.8,10.5-30.2,47.4c0,0,0.4,11.7,18,17.7c0,0,23.1-62.2,19.8-65.1
			C1192.5,431.6,1188.1,434.5,1188.1,434.5z"/>
		<path class="st4" d="M1304.5,658.6c0,0-1-4.3-4.8-6s-7.3-5.4-7.7-4.3c-0.3,1.1-0.5,2.9,1.4,5.1
			C1295.4,655.6,1298.8,659.2,1304.5,658.6z"/>
	</g>
	<g>
		<path class="st5" d="M780.3,154.3h7.4l-10.8,56h22.8l-1.2,6.5h-30.1L780.3,154.3z"/>
		<path class="st5" d="M833.5,214.3c-3.3,1.9-8.2,3.3-13.5,3.3c-11.1,0-15.7-7.9-15.7-17.4c0-13.1,9.1-29.2,23-29.2
			c8,0,12,5.1,12,11.1c0,11.5-12.2,15-27.5,14.8c-0.3,1.8-0.2,6.2,0.7,8.7c1.6,4,4.7,5.9,9.1,5.9c4.7,0,8.3-1.5,10.9-2.9
			L833.5,214.3z M826.3,176.9c-6.4,0-11.5,6.5-13.5,14.3c10.6,0.1,19.5-1.8,19.5-8.9C832.2,178.9,829.8,176.9,826.3,176.9z"/>
		<path class="st5" d="M861.6,161.3l-2,10.7h10l-1.1,5.8h-10.1l-4.3,23c-0.5,2.4-0.8,4.7-0.8,6.7c0,2.6,1.1,4.1,3.9,4.1
			c1.3,0,2.4-0.1,3.3-0.3l-0.4,5.8c-1.5,0.5-3.6,0.7-5.7,0.7c-6.1,0-8.8-3.7-8.8-8.3c0-2.3,0.3-4.7,0.9-8.1l4.5-23.7H845l1.1-5.8
			h6.1l1.6-8.1L861.6,161.3z"/>
		<path class="st5" d="M891.2,152.9c-3.3,7.7-8.8,17.6-12,21.8l-5.1,0.6c2.9-5.5,6.9-14.9,9-21.5L891.2,152.9z"/>
		<path class="st5" d="M882.4,209.2c1.9,1.2,5.3,2.6,8.8,2.6c5,0,8.2-3.3,8.2-7.4c0-3.6-1.7-5.8-5.8-8.3c-4.5-2.9-7.4-6.8-7.4-11.3
			c0-7.7,6.4-13.7,15.6-13.7c3.7,0,7,1,8.6,2l-2,5.7c-1.5-0.9-4.1-1.9-7-1.9c-4.7,0-7.8,3-7.8,6.8c0,3.3,2.1,5.4,5.6,7.5
			c4.5,3,7.7,7,7.7,11.8c0,9.6-7.2,14.7-16.3,14.7c-4.5,0-8.5-1.5-10.3-2.9L882.4,209.2z"/>
		<path class="st5" d="M949.3,161.3l-2,10.7h10l-1.1,5.8H946l-4.3,23c-0.5,2.4-0.8,4.7-0.8,6.7c0,2.6,1.1,4.1,3.9,4.1
			c1.3,0,2.4-0.1,3.3-0.3l-0.4,5.8c-1.5,0.5-3.6,0.7-5.7,0.7c-6.1,0-8.8-3.7-8.8-8.3c0-2.3,0.3-4.7,0.9-8.1l4.5-23.7h-6.1l1.1-5.8
			h6.1l1.6-8.1L949.3,161.3z"/>
		<path class="st5" d="M984,216.8c0-2.7,0.5-6.4,0.9-10.7h-0.2c-4.7,8.8-10.3,11.6-15.7,11.6c-7.1,0-11.6-5.8-11.6-14.2
			c0-15,10.2-32.6,29.1-32.6c3.9,0,8.2,0.7,10.9,1.7l-4.8,24c-1.4,7.3-2,15.1-1.9,20.1H984z M989.2,177.5c-1-0.4-2.4-0.6-4.5-0.6
			c-11.1,0-19.5,13.4-19.6,25.1c-0.1,5.2,1.5,9.6,6.6,9.6c5.9,0,12.6-8.5,14.7-19.6L989.2,177.5z"/>
		<path class="st5" d="M1001.4,216.8l12.4-65.4h7.4l-12.4,65.4H1001.4z"/>
		<path class="st5" d="M1021.4,216.8l12.4-65.4h7.3l-7.7,40.5h0.2c1.2-1.6,2.8-3.2,3.8-4.5l14.5-15.6h9l-18.3,18.6l12,26.3h-8
			l-9.6-22.2l-5,4.8l-3.2,17.3H1021.4z"/>
		<path class="st5" d="M1065.2,212.6c0-3.2,2.4-6,5.6-6c3.1,0,4.9,2.3,4.9,5.3c0,3.2-2.3,5.9-5.8,5.9
			C1067.1,217.8,1065.2,215.4,1065.2,212.6z M1069.3,199.2c0.1-0.7,0.2-1.4,0.2-2c0.4-5.2,2.9-10.9,8.5-17.3c3.8-4.2,8-8.3,8-14
			c0-3.4-1.9-6.3-6.8-6.3c-3.2,0-6,0.9-8.3,2.4l-1.3-5.6c3.1-1.8,7.1-3.2,11.8-3.2c8.7,0,12.4,5.8,12.4,11.4c0,7.4-5,13.1-10.1,18.5
			c-4.4,4.7-6.4,8.7-7,13.9c-0.1,0.7-0.2,1.5-0.4,2.2H1069.3z"/>
	</g>
	<g>
		<path class="st5" d="M1365.4,207.6c3,2,7.1,3.5,11.8,3.5c7.1,0,12.9-4.6,12.9-11.8c0-4.7-2.5-8.3-8.3-12c-7-4.4-11-9.4-11-15.9
			c0-10.8,8.8-18.1,20-18.1c5.5,0,9.6,1.6,11.5,2.9l-2.6,6.1c-1.9-1.1-5.2-2.6-9.6-2.5c-7.2,0-11.7,4.9-11.7,10.3
			c0,4.9,3,8,8.7,11.7c6.7,4.1,10.6,9.2,10.6,16.3c0,10.9-8,19.4-21.3,19.4c-5.8,0-11.3-1.9-13.5-3.8L1365.4,207.6z"/>
		<path class="st5" d="M1445.2,171.9l-5.8,31.2c-1,5.4-1.7,10-2,13.7h-6.7l1-8l-0.2-0.1c-3.8,5.8-9.3,9-14.7,9
			c-5.7,0-10.6-3.2-10.6-11.8c0-2.3,0.3-4.6,0.8-7.4l5-26.6h7.4l-5,26c-0.5,2.5-0.7,4.7-0.7,6.8c0,4.1,1.7,6.9,6.2,6.9
			c5.2,0,11.6-6.4,13.4-15.7l4.5-23.9H1445.2z"/>
		<path class="st5" d="M1449.3,216.8l5.6-29.3c1-5.8,1.7-11.7,2.1-15.6h6.5c-0.3,2.9-0.6,5.8-1.1,9.4h0.3c2.9-5.9,7.4-10.3,13-10.3
			c0.6,0,1.4,0.1,1.9,0.2l-1.4,7.4c-0.5-0.1-1-0.2-1.8-0.2c-6.4,0-12.1,8.2-13.8,17.4l-3.9,21H1449.3z"/>
		<path class="st5" d="M1505.9,214.3c-3.3,1.9-8.2,3.3-13.5,3.3c-11.1,0-15.7-7.9-15.7-17.4c0-13.1,9.1-29.2,23-29.2
			c8,0,12,5.1,12,11.1c0,11.5-12.2,15-27.5,14.8c-0.3,1.8-0.2,6.2,0.7,8.7c1.6,4,4.7,5.9,9.1,5.9c4.7,0,8.3-1.5,10.9-2.9
			L1505.9,214.3z M1498.7,176.9c-6.4,0-11.5,6.5-13.5,14.3c10.6,0.1,19.5-1.8,19.5-8.9C1504.6,178.9,1502.2,176.9,1498.7,176.9z"/>
	</g>
</g>
</svg>
