<?xml version="1.0" encoding="utf-8"?>
<!-- Generator: Adobe Illustrator 22.0.0, SVG Export Plug-In . SVG Version: 6.00 Build 0)  -->
<svg version="1.1" id="_x2018_лой_x5F_1" xmlns="http://www.w3.org/2000/svg" xmlns:xlink="http://www.w3.org/1999/xlink"
	 x="0px" y="0px" viewBox="0 0 1864 704.2" style="enable-background:new 0 0 1864 704.2;" xml:space="preserve">
<style type="text/css">
	.st0{clip-path:url(#SVGID_2_);}
	.st1{fill:#DCEAFB;}
	.st2{fill:#EBF5FF;}
	.st3{fill:#8BCE87;}
	.st4{fill:#F6FAFF;}
	.st5{opacity:0.95;fill:#F6FBFF;}
	.st6{fill:#FDDBBA;}
	.st7{fill:#FC7600;}
	.st8{fill:#FF912B;}
	.st9{fill:#BB6D43;}
	.st10{fill:#32478F;}
	.st11{fill:#2A3967;}
	.st12{fill:#AD6638;}
	.st13{fill:#964E26;}
	.st14{fill:#FFFFFF;}
	.st15{fill:#FFAE73;}
	.st16{fill:#FF7536;}
	.st17{fill:#F5975D;}
	.st18{fill:#2B478B;}
</style>
<g>
	<g>
		<defs>
			<rect id="SVGID_1_" y="-121.5" width="1864" height="825.7"/>
		</defs>
		<clipPath id="SVGID_2_">
			<use xlink:href="#SVGID_1_"  style="overflow:visible;"/>
		</clipPath>
		<g class="st0">
			<g>
				<path class="st1" d="M46.6,637V387.4V280.6h126.8v90.7h38.7V203.5h8.4h1.5h22.7h7.9h1.5h43.3h1.5h27.2h1.5h11.2v26.5v14.3v26.5
					v15.2v26.5v15.8V355v5.1h42.8v-25.3l50.5,0.2v-41h10.2v-8.1h1.3v8.1h39v0h7.8v-8.1h1.3v8.1h9.4v81.6h60.1v30h33.4v-17.4h31V319
					H641h2.3h37h3.6h24.5v-0.8h0v-7.7h0v-7.3h0v-12.1h0v-7.7h0v-12.1h0v-7.7h0v-12.1h0v-8.4h0V231h0v-10.6h0v-12.1h0v-8h0h7.3h1.2
					h38.6h15.4h1.2h9.9v63.3l6.9,0v0H789v-12.1h0.1v-8.4H789V231h0.1v-8.3H789v-12.1h0.1v0h65.6v0h11.3c0.6,0.3,1.2,0.6,1.8,1v80.7
					h37.8l1.2,94.4l4.2,319.4l-63.1-0.2l-122.1-0.4l-613.5-1.9c0,0-33.1-23.1-65.4-66.2L46.6,637z"/>
				<path class="st1" d="M46.7,637.2V387.4h-0.1H0v162.2c0,0,29,64,46.6,87.4L46.7,637.2z"/>
				<rect x="641" y="286.7" class="st1" width="2.3" height="32.9"/>
				<rect x="680.4" y="258.4" class="st1" width="3.6" height="63.7"/>
				<rect x="220.5" y="191.8" class="st1" width="1.5" height="11.7"/>
				<rect x="252.6" y="191.8" class="st1" width="1.5" height="11.7"/>
				<rect x="326.2" y="191.8" class="st1" width="1.5" height="11.7"/>
				<rect x="715.8" y="191.2" class="st1" width="1.2" height="9.1"/>
				<rect x="771.1" y="191.2" class="st1" width="1.2" height="9.1"/>
				<rect x="297.4" y="191.8" class="st1" width="1.5" height="11.7"/>
			</g>
			<g>
				<path class="st1" d="M800.6,705.9l114.6,0.3l453.4,1.3l355.5-1.8c2.7-0.9,5.3-2,7.9-3.2c39.9-18.5,70.7-67.8,92.9-127.7V291.3
					l-53.6,0v-80.7c-0.7-0.3-1.4-0.6-2.1-1h-13.3v0h-77.5v0h-0.1v12.1h0.1v8.3h-0.1v12.1h0.1v8.3h-0.1v12.1h0.1v0l-8.2,0v-63.3
					h-11.7h-1.4h-18.3h-45.7h-1.4h-8.6h0v8h0v12.1h0v10.6h0v12.1h0v8.3h0v12.1h0v7.7h0v12.1h0v7.7h0v12.1h0v7.3h0v7.7h0v0.8h-29
					h-4.3h-43.8h-2.8h-18.3v69.2h-36.6v17.4H1409v-30h-71v-81.6h-11.1V285h-1.6v8.1h-9.2v0h-46.1V285h-1.6v8.1h-12v41l-59.7-0.2
					v25.3H1146v-5.1v-26.5v-15.8v-26.5v-15.2v-26.5v-14.3v-26.5h-13.2h-1.8h-32.2h-1.8h-51.2h-1.8h-9.3h-26.8h-1.8h-10v167.8h-45.8
					v-90.7H800.4v106.9v319.4H800.6z"/>
				<polygon class="st1" points="800.6,705.9 800.6,386.6 800.4,386.6 791.3,386.6 725.3,386.6 725.3,705.7 796,705.9 800.4,705.9 
									"/>
				<g>
					<rect x="1583.2" y="199.3" class="st2" width="55.7" height="16.1"/>
					<rect x="1583.2" y="224.2" class="st2" width="55.7" height="16.1"/>
					<rect x="1583.2" y="249.5" class="st2" width="55.7" height="16.1"/>
					<rect x="1583.2" y="275.2" class="st2" width="55.7" height="16.1"/>
					<rect x="1583.2" y="300" class="st2" width="55.7" height="16.1"/>
				</g>
				<g>
					<rect x="1583.2" y="327.4" class="st2" width="55.7" height="16.1"/>
					<rect x="1583.2" y="352.2" class="st2" width="55.7" height="16.1"/>
					<rect x="1583.2" y="377.5" class="st2" width="55.7" height="16.1"/>
					<rect x="1583.2" y="403.2" class="st2" width="55.7" height="16.1"/>
					<rect x="1583.2" y="428.1" class="st2" width="55.7" height="16.1"/>
				</g>
				<g>
					<rect x="1678.5" y="209.9" class="st2" width="55.7" height="16.1"/>
					<rect x="1678.5" y="234.7" class="st2" width="55.7" height="16.1"/>
					<rect x="1678.5" y="260.1" class="st2" width="55.7" height="16.1"/>
					<rect x="1678.5" y="285.8" class="st2" width="55.7" height="16.1"/>
					<rect x="1678.5" y="310.6" class="st2" width="55.7" height="16.1"/>
				</g>
				<g>
					<rect x="1678.5" y="336.5" class="st2" width="55.7" height="16.1"/>
					<rect x="1678.5" y="361.3" class="st2" width="55.7" height="16.1"/>
					<rect x="1678.5" y="386.6" class="st2" width="55.7" height="16.1"/>
					<rect x="1678.5" y="412.4" class="st2" width="55.7" height="16.1"/>
					<rect x="1678.5" y="437.2" class="st2" width="55.7" height="16.1"/>
				</g>
				<g>
					<rect x="1678.5" y="465.7" class="st2" width="55.7" height="16.1"/>
					<rect x="1678.5" y="490.5" class="st2" width="55.7" height="16.1"/>
					<rect x="1678.5" y="515.8" class="st2" width="55.7" height="16.1"/>
					<rect x="1678.5" y="541.5" class="st2" width="55.7" height="16.1"/>
					<rect x="1678.5" y="566.4" class="st2" width="55.7" height="16.1"/>
				</g>
				<rect x="1503.4" y="285.8" class="st1" width="2.8" height="32.9"/>
				<rect x="1549.9" y="257.5" class="st1" width="4.3" height="63.7"/>
				<rect x="1006.1" y="190.9" class="st1" width="1.8" height="11.7"/>
				<rect x="1044" y="190.9" class="st1" width="1.8" height="11.7"/>
				<rect x="1131" y="190.9" class="st1" width="1.8" height="11.7"/>
				<rect x="1591.8" y="190.3" class="st1" width="1.4" height="9.1"/>
				<rect x="1657.1" y="190.3" class="st1" width="1.4" height="9.1"/>
			</g>
			<path class="st3" d="M868.7,705.3H725.6L0,703.4V549.6c0,0,78.4-16.8,118.6-8.3c66.9,14.3,74.8,90.8,137.8,75.1
				c63-15.7,113.4-14.3,147.9,15.4c34.4,29.7,127.9-1.2,182-4.7c54.1-3.6,151.5,54.6,180.1,51.1C794.9,674.6,863.8,666,868.7,705.3z
				"/>
			<path class="st3" d="M1863.2,707.5h-785.5c-6.4-44.8,47.8-63.3,100-62.4c52.2,0.9,108.8,32.7,139.8-34.5
				c30.9-67.2,171.4-37.1,217.9-54.7c46.4-17.6-10.3-55.2,10.3-92.3c27.1-48.9,132.8-55.1,197.2-76c64.4-20.9,22-46.6,86.4-91.8
				c11.7-8.2,38.4-18.4,38.4-18.4L1863.2,707.5z"/>
			<path class="st4" d="M1197.6,117.4c0-12.3,9.9-22.2,22.2-22.2c12.3,0,22.2,9.9,22.2,22.2c0,12.3-9.9,22.2-22.2,22.2
				C1207.5,139.6,1197.6,129.7,1197.6,117.4z"/>
			<path class="st5" d="M123.8,88.6c0,0,22.4-34.3,76.1-30.5c0,0,77.9-57.2,160.9-7.6c0,0,88.3-12.3,153.7,10.6
				c43.6,15.3,58,31.3,58,31.3L123.8,88.6z"/>
			<path class="st5" d="M1396.9,124.5c0,0,18.6-34.3,63.2-30.5c0,0,64.7-57.2,133.6-7.6c0,0,73.3-12.3,127.6,10.6
				c36.2,15.3,48.2,31.3,48.2,31.3L1396.9,124.5z"/>
			<path class="st5" d="M898.1,90.8c0,0,9.5-14.5,32.1-12.9c0,0,32.9-24.1,67.9-3.2c0,0,37.2-5.2,64.8,4.5
				c18.4,6.4,24.5,13.2,24.5,13.2L898.1,90.8z"/>
			<g>
				<path class="st6" d="M1466.6,707.5h-3.3c26.1-98.7,11.2-248.4,3.2-328.6c-3.6-35.7-4.7-48.1-2.8-50.6l2.6,2c0,0,0.1-0.1,0.1-0.1
					c-1.2,2.5,0.9,23.8,3.4,48.4c3.9,38.4,9.7,96.4,11.2,156.6C1482.7,606.9,1477.9,664.6,1466.6,707.5z"/>
			</g>
			<g>
				<g>
					<g>
						<path class="st6" d="M1505.8,432.8c-87.5,0-156.5-26.5-198.9-48.7c-46-24.1-71.7-48.5-72-48.8l2.3-2.3
							c0.3,0.2,25.7,24.4,71.4,48.3c42.1,22,110.5,48.3,197.3,48.3V432.8z"/>
					</g>
					<g>
						<path class="st6" d="M1865.3,530.3l0,3.5c-20.7,5.3-64.5,9.7-90.4,11.7c-7.4,0.6-15,1-22.9,1.3c-1.1,0-2.2,0.1-3.3,0.1
							c-6.7,0.2-13.6,0.3-20.6,0.3c-22.2,0-45.7-1-70.4-3.1c-8.4-0.7-16.6-1.5-24.5-2.3c-1.1-0.1-2.2-0.2-3.3-0.3
							c-47.3-5.2-84.9-12.5-98.7-15.4c-2.9-0.6-4.7-1-5.4-1.1c-1.5,0.2-3.1,0.4-4.6,0.5c-38.7,4.4-76.2,4.3-112.2-0.3
							c-1.1-0.1-2.2-0.3-3.2-0.4c-28.4-3.8-55.9-10.4-82.3-19.8c-1.4-0.5-2.8-1-4.2-1.5c-1.1-0.4-2.1-0.8-3.2-1.2
							c-28.8-10.9-54.8-24.7-77.4-41.1c-0.4-0.3-0.9-0.6-1.3-0.9c-0.8-0.6-1.6-1.2-1.9-1.4c0.1,0,0.2,0.1,0.4,0.1l0.4-3.2
							c0.5,0.1,0.8,0.2,2.7,1.6c0.1,0.1,0.2,0.2,0.4,0.3c14.7,10.8,40.5,27.2,76.9,41.1c1.1,0.4,2.1,0.8,3.2,1.2
							c24.3,9.1,53.2,17,86.6,21.5c1.1,0.1,2.1,0.3,3.2,0.4h0c33,4.2,70.2,5,111.5,0.4c1.7-0.2,3.4-0.4,5-0.6l0.3,0l0.3,0.1
							c0.1,0,1.6,0.4,4.4,0.9c12.5,2.6,50.7,10.2,99.1,15.5c1.1,0.1,2.2,0.2,3.3,0.4c8.1,0.9,16.5,1.7,25,2.4
							c32.4,2.7,62.9,3.6,90.9,2.8c1.1,0,2.2-0.1,3.3-0.1c7.7-0.3,15.2-0.7,22.5-1.2C1801,540.3,1844.4,535.8,1865.3,530.3z"/>
					</g>
					<g>
						<path class="st6" d="M1864.4,619.4l0,3.5c-22.3,4.5-98.8,12.9-123.2,13c-0.7,0-1.4,0-2.1,0c-0.4,0-0.8,0-1.2,0
							c-29.5-0.1-58.9-2.5-84.1-5.6c-7.7-1-15.2-2-22.5-3.1c-1.1-0.2-2.2-0.3-3.3-0.5c-38.4-5.8-69.7-12.8-83.7-16.2
							c-4.1-1-6.7-1.6-7.6-1.9c-0.8,0.2-1.7,0.3-2.5,0.4c-51.9,9.2-98.7,10.6-138.6,8c-1.1-0.1-2.2-0.1-3.3-0.2
							c-32.8-2.3-60.9-7.2-83.3-12.5c-0.9-0.2-1.9-0.4-2.8-0.7c-0.1,0-0.2-0.1-0.4-0.1c-36.5-8.9-62.7-19.8-76-26.1
							c-6.5-3-9.9-5-10-5l1.6-2.8c0.1,0.1,3.1,1.7,8.7,4.4c12.7,6.1,38.9,17.2,76.2,26.3c0.3,0.1,0.5,0.1,0.8,0.2
							c0.8,0.2,1.6,0.4,2.4,0.6c22.4,5.3,50.5,10.2,83.5,12.5c1.1,0.1,2.2,0.1,3.3,0.2c39.6,2.5,85.9,1.1,137.3-8
							c0.9-0.2,1.9-0.3,2.8-0.5l0.4-0.1l0.3,0.1c0.1,0,2.4,0.6,6.6,1.6c13.2,3.2,45.1,10.4,84.6,16.4c1.1,0.2,2.2,0.3,3.3,0.5
							c7.3,1.1,14.9,2.1,22.6,3.1c32.4,4,60.4,5.6,84.3,5.7c1.1,0,2.2,0,3.4,0C1771.8,632.5,1845.8,623.4,1864.4,619.4z"/>
					</g>
					<g>
						<path class="st6" d="M1866.4,432.8c-5.4,1-13.8,2.7-19.5,3.5c-1.1,0.1-2.1,0.3-3.2,0.4c-30,4.1-63.5,5.8-96.3,6.2
							c-1.1,0-2.2,0-3.3,0c-24.6,0.2-48.8-0.3-70.8-1.1c-18.5-0.7-36.4-1.7-53.1-2.8c-1.1-0.1-2.2-0.1-3.4-0.2
							c-57.8-3.9-100.3-9.2-100.8-9.2l-0.2,1.6l-0.2,1.6c0,0,0.2,0,0.5,0.1c4.9,0.6,46.3,5.5,101.4,9.2c1.1,0.1,2.2,0.1,3.4,0.2
							c16.5,1.1,34.1,2.1,52.3,2.8c21,0.8,40.9,1.2,59.8,1.2c3.9,0,7.8,0,11.6-0.1c1.1,0,2.2,0,3.3,0c20.2-0.2,39.1-1,56.5-2.2
							c14.3-1,27.6-2.4,39.9-4c1.1-0.1,2.1-0.3,3.2-0.4c5.4-0.8,14-2.5,19-3.4V432.8z"/>
					</g>
					<g>
						<path class="st6" d="M1870,347.2c0,1.1,0,2.3-0.1,3.5v0c-11.6,3.5-24.7,6.5-39.2,8.9c-1.1,0.2-2.1,0.4-3.2,0.5
							c-8.4,1.4-17.3,2.6-26.7,3.6c-21.2,2.4-44.8,3.9-70.6,4.5c-1.1,0-2.3,0.1-3.4,0.1c-8.9,0.2-18,0.3-27.4,0.3
							c-10.8,0-21.9-0.1-33.4-0.4c-22.8-0.5-44.8-1.5-65-2.8c-1.2-0.1-2.3-0.1-3.5-0.2c-51.6-3.2-90.3-7.7-96.5-8.4
							c-0.5-0.1-0.8-0.1-0.9-0.1l0.2-1.6l0.2-1.6c0.5,0.1,35.6,4.3,85.4,7.7c4.2,0.3,8.5,0.6,12.9,0.8c20.8,1.3,43.6,2.4,67.3,2.9
							c16.8,0.4,34.8,0.5,53.1,0.2c2.7,0,5.4-0.1,8.2-0.2c33.5-0.8,67.9-3.1,98.7-8.1c1.2-0.2,2.4-0.4,3.7-0.6
							C1844.2,354,1857.8,351,1870,347.2z"/>
					</g>
					<g>
						<path class="st6" d="M1283.7,707.5h-3.5c28.3-77,37.4-199.4,38.4-284.6c1.1-92.3-4.7-167.4-4.7-168.1l3.2-0.3
							c0.1,0.7,5.8,75.9,4.7,168.4C1320.9,508.4,1312.1,630,1283.7,707.5z"/>
					</g>
					<g>
						<path class="st6" d="M1364.1,707.5l-3.6,0.1c20-41.3,33.5-87.8,40.6-139c5.7-40.9,7.6-85.8,5.9-133.4
							c-3-81-16-142.5-16.1-143.1l3.2-0.7c0.1,0.6,13.2,62.3,16.2,143.6c1.8,47.7-0.2,92.8-5.9,134
							C1397.2,620.4,1384.2,665.9,1364.1,707.5z"/>
					</g>
					<g>
						<path class="st6" d="M1616.1,706l-3.1-0.9c24.5-84,18.9-172.2,9.9-231.4c-9-59.4-23.2-102.2-25.4-108.6
							c-25.6-6.4-62.8-32.2-110.7-77c-36-33.6-64.9-65.9-65.2-66.2l2.4-2.2c1.1,1.3,115.2,128.5,175,142.4l0.9,0.2l0.3,0.8
							c0.2,0.4,16,45.5,25.8,110c5.8,37.9,8.4,74.9,7.7,110.1C1633,627.4,1627,668.6,1616.1,706z"/>
					</g>
					<g>
						<path class="st6" d="M1722.6,707.5l-3.4-0.1c32.7-101.1,33-188.1,27.4-243.4c-5.6-55.3-17.9-90.5-19.8-95.8
							c-43.6-16.1-74.8-56.7-93.4-88c-20.2-34-30.1-64.7-30.2-65l3.1-1c0.1,0.3,10,30.7,29.9,64.4c18.4,31,49.3,71.2,92.4,86.8
							l0.7,0.3l0.3,0.7c0.1,0.4,14.2,37.1,20.2,97.3c3.6,35.3,3.7,71.8,0.5,108.3C1746.3,617.7,1737.1,662.7,1722.6,707.5z"/>
					</g>
					<g>
						<path class="st6" d="M1840.4,707.5h-4.4c13.9-139.4,10.9-249.9,8.2-267.5c-0.2-1.1-0.3-2.2-0.5-3.3c-1.4-9-2.8-17-4.1-24
							c-5.3-28.5-10.1-46-12.1-52.5c-0.4-1.2-0.6-2-0.8-2.5c-0.2-0.2-0.4-0.4-0.7-0.7c-15.7-16.4-37-45-51.2-88.9
							c-5.1-15.9-7.9-29.4-9.3-37.8c-1-5.8-1.3-9.2-1.3-9.3l3.2-0.3c0,0.2,0.4,3.7,1.4,9.6c3.9,22.8,17.7,81.4,60.4,125.4l0.3,0.3
							l0.1,0.4c0,0,0,0,0,0.1c0.1,0.3,0.4,1.4,1,3.2c2.5,8.6,9.4,34.1,16.1,76.6c0.2,1.1,0.3,2.2,0.5,3.3
							C1849.7,455,1854.3,560.4,1840.4,707.5z"/>
					</g>
				</g>
				<g>
					<path class="st7" d="M1548.8,707.5c-19.8-133.7-51.1-335.8-57.2-347.9c-1.9-3-18.5-16.9-131.2-78
						c-62.2-33.8-123.9-65.8-124.5-66.1l19.9-0.7c0.6,0.3,47.7,24.7,110.4,58.7c128.1,69.6,132.4,78,134.2,81.6
						c8.7,17.3,53.4,317.7,58.5,352.2H1548.8z"/>
				</g>
				<rect x="1236" y="211.4" class="st8" width="631.9" height="18.9"/>
				<g>
					<polygon class="st8" points="1205.7,707.4 1231.9,211.2 1257.2,211.6 1220.1,707.5 					"/>
				</g>
			</g>
			<g>
				<path class="st9" d="M1016.3,381.8c0,0,28.7,45.5,29.7,50.9c1,5.4-0.2,50.8-0.2,50.8l9.5,1.5c0,0,12.8-51.2,11.8-62.1
					c-1-11-34.4-66-34.4-66L1016.3,381.8z"/>
				<path class="st9" d="M1028.3,625c-0.7,27.7-6,62-6,62h-18.5l-12-59.1l-6-29.5c0,0,25.5-17.8,37.5-6.3
					C1027.5,596.2,1028.6,609.6,1028.3,625z"/>
				<path class="st9" d="M966.4,629.5c-6.7,25.8-19,56.2-19,56.2l-16,1.4l-0.4-60.5l-0.2-32.3c0,0,28.6-12.1,38,1.8
					C972.3,601.2,970.3,614.6,966.4,629.5z"/>
				<path class="st10" d="M1007,592.5c-1,7.8-3.9,13.5-9,15.7c-14.1,6.2-30.1,5.7-43.8,3.2c-3-0.6-5.9-1.2-8.6-2
					c-13.8-3.6-23.6-8.6-23.6-8.6L934,482.9c13.5-2.7,31.9,3.4,49.7,30.5C999.8,537.8,1009.6,572.2,1007,592.5z"/>
				<path class="st11" d="M1007,592.5c-1,7.8-3.9,13.5-9,15.7c-14.1,6.2-30.1,5.7-43.8,3.2c-3-0.6-5.9-1.2-8.6-2
					c-2.7-51.8,16.4-99.4,22-106.1C985.8,530.8,1006.1,570.5,1007,592.5z"/>
				<path class="st10" d="M1019.6,274.2c2.2-9.5-0.5-16.5-4.9-23.2c-4.2-6.5-10-6.7-15.6-12.2c-5.3-5.1-15.2-8.5-23-8.5
					c-25.1,0-46.9,15.4-42,41.5c1.6,8.3,0.2,14.8,7,24.5c8.4,12.1,18.6,21.8,35,21.8c8.7,0,16.3-2,23-8.3c3.7-3.5,8.9-3.9,12.1-7.6
					C1017.7,294.6,1017.2,284.6,1019.6,274.2z"/>
				<path class="st10" d="M956.8,487.5l15.6,128.7c0,0,33,7.8,69.4-3.6c0,0-10.8-123.4-19.5-132.4
					C1013.5,471.2,956.8,487.5,956.8,487.5z"/>
				<path class="st12" d="M953,335.5l31.3,16l6.3-21.7c0,0-4-7.5-5.8-19.8c-0.8-5.2-1.1-11.2-0.6-17.9l-25.5,13.1c0,0,0.6,2.4,1,5.8
					c0.4,3.8,0.6,8.8-0.4,13.7C958.3,328.8,956.4,332.7,953,335.5z"/>
				<path class="st8" d="M932.8,490.8c34.9,9.5,79.3,4.2,90.3,2.6c1.6-0.2,2.5-0.4,2.5-0.4c3.9-0.9,6.5-4.4,6.5-8.2
					c0-0.5,0-1-0.1-1.5l-10.3-57.4l3.5-28.8l2-16.4l4.5-37.5c-14.9-7.6-28.5-11.7-40.9-13.4c-4.8,4.9-14.2,12.1-24.7,10.7
					c-7.9-1-9.2-5.1-9-9.7c-11.4,1.4-21.3,9.2-21.3,9.2L933,462.2C932.4,470.3,925,488.7,932.8,490.8z"/>
				<path class="st13" d="M959.2,324.6c14.5-0.4,25.6-14.7,25.6-14.7l-25.2,1C960.1,314.8,960.3,319.8,959.2,324.6z"/>
				<path class="st9" d="M957.8,315.9c0,0,32.1,3.9,32.8-18.7c0.7-22.6-12.7-37.2-21.6-37.1c-17.8,0.3-20.7,7.5-22.8,15
					C944.1,282.6,943,314.3,957.8,315.9z"/>
				<path class="st14" d="M966.4,302.9c0,0-0.7,2.8-7.7,2.3c0,0-5.9-0.4-5.7-3.5C953,301.6,958.7,299.5,966.4,302.9z"/>
				<path class="st10" d="M961,260.3c0,0,27.4,0,21.1,18.8c-4,11.9,9.2,13.7,9.2,13.7l6.4-19l-4-14.8L961,260.3z"/>
				<path class="st9" d="M947.8,336.5c0,0-40.1-35.8-42.6-40.7c-2.4-4.9-13.8-48.9-13.8-48.9l-9.6,1.2c0,0,1.8,52.7,5.9,63
					c4,10.3,51.3,53.9,51.3,53.9L947.8,336.5z"/>
				<path class="st9" d="M891.4,246.9c0,0-0.2-4.1,1.1-7.6c1.3-3.5,0.6-12.5-1.2-12c-1.7,0.5-0.9,3.8-2.9,3.4
					c-1.9-0.4-5-10.9-7.5-9.9c-2.5,1-4.3,4.5-3.5,12.1c0.8,7.7,4.3,15.2,4.3,15.2L891.4,246.9z"/>
				<path class="st9" d="M1045.8,483.5c0,0-1,4-3.2,7c-2.3,3-4,11.9-2.2,11.9c1.8,0,1.9-3.4,3.7-2.5c1.7,0.9,1.8,11.9,4.4,11.6
					c2.7-0.2,5.4-3.1,6.8-10.7c1.4-7.6,0.1-15.8,0.1-15.8L1045.8,483.5z"/>
				<path class="st8" d="M953.6,331.4l-25.4-12.7c0,0-16.4,24.8-6,44.7c0,0,11.3,5.1,12.6,15.9L953.6,331.4z"/>
				<path class="st8" d="M990.6,329.8l4.7,9.4l4.6,9.1l24.5,48.7c3.6-4.6,28.6-13.9,28.6-13.9s-13.3-29.9-21.4-39.8
					c-2.3-2.9-6.7-5.2-11.7-7c-4.2-1.5-8.8-2.8-13.1-3.7C998,330.6,990.6,329.8,990.6,329.8z"/>
				<path class="st6" d="M966.4,629.5c-6.7,25.8-19,56.2-19,56.2l-16,1.4l-0.4-60.5C939.1,628,954,630,966.4,629.5z"/>
				<path class="st10" d="M931.3,685.3c0,0-3.1,6.1-10.1,7.6c-4.4,1-8.1,3.2-10.5,6.4c-2,2.7-0.1,6.5,3.3,6.5h35.3
					c3,0,5.4-2.6,5.1-5.6c-0.3-2.6-0.5-5.7-0.7-8c-0.3-5.1-5.4-9.2-5.4-9.2L931.3,685.3z"/>
				<path class="st6" d="M1028.3,625c-0.7,27.7-6,62-6,62h-18.5l-12-59.1C999.7,628.8,1012.6,629.2,1028.3,625z"/>
				<path class="st10" d="M1003.4,685.4c0,0-2,6.1-9,7.6c-4.4,1-8.1,3.2-10.5,6.4c-2,2.7-0.1,6.5,3.3,6.5h35.3c3,0,5.4-2.6,5.1-5.6
					c-0.3-2.6-0.5-5.7-0.7-8c-0.3-5.1-4.2-9.4-4.2-9.4L1003.4,685.4z"/>
			</g>
			<g>
				<path class="st15" d="M1691.5,462.4c1.7,2.8-20.7,112.3-17.2,138.5c2.2,16.8,48.3,90.1,48.3,90.1l15.1-12
					c0,0-20.6-68.4-26.7-78.9c-5.2-8.8,42.9-66.7,25.9-102.7C1719.6,461.5,1691.5,462.4,1691.5,462.4z"/>
				<path class="st10" d="M1715.9,681.4c0,0-4,7.8-12.8,9.7c-5.6,1.2-10.3,4.1-13.3,8.2c-2.5,3.4-0.1,8.3,4.2,8.3h44.9
					c3.8,0,6.8-3.3,6.4-7.1c-0.3-3.3-0.7-7.2-0.8-10.2c-0.3-6.5-6.8-11.7-6.8-11.7L1715.9,681.4z"/>
				<path class="st15" d="M1668.5,472.2c0.9,3.1-58.8,74.9-59.8,114.5c-1,39.5-10.1,93.9-10.1,93.9l21.7-2.8
					c0,0,28.1-68.9,24.9-83.5c-2.2-10,56.7-53.7,49.6-92.8C1687.7,462.3,1668.5,472.2,1668.5,472.2z"/>
				<path class="st15" d="M1636.4,382.5c-9-12.3-28.4-3.9-25.4,11.1c4.1,20.9,13.8,44.7,14,58.4c0.3,22.8,3.5,54.3,3.5,54.3l8.3-3.5
					c0,0,7.2-38,5.3-55.6c-1.9-17.6,7.8-39.3,2.6-50.9C1643.1,392.8,1640.1,387.6,1636.4,382.5z"/>
				<path class="st10" d="M1706.4,522.3l-22.8,24.7l-17.4,18.8c-6.1,0.7-12.2-0.1-17.9-1.6c-20.9-5.7-33.3-20-33.3-20
					c25.2-41.8,33.3-69.1,33.3-69.1l56.9,16.3L1706.4,522.3z"/>
				<path class="st11" d="M1675.9,510.1l7.7,36.8l-17.4,18.8c-6.1,0.7-12.2-0.1-17.9-1.6C1659.1,553.8,1672.7,528.1,1675.9,510.1z"
					/>
				<path class="st10" d="M1678.6,485.8c-4.5,12.4-7.8,80.3-7.8,80.3s28.3,8.2,67.2,0c0,0,15.5-65-9-87.3
					C1712.2,463.7,1678.6,485.8,1678.6,485.8z"/>
				<path class="st16" d="M1611.7,364.7c0,0,50.1-29.8,80.8-5c4.4,3.5,32.8,29.4,44.5,81.9c9,40.2,4.8,54.6,4.8,54.6
					s-90,6.3-101.1-10.1c-11.1-16.4-3.3-32.4-12.7-53.7C1618.5,411.2,1605.9,371.3,1611.7,364.7z"/>
				<path class="st10" d="M1598.6,681.3c0,0-4,7.8-12.8,9.7c-5.6,1.2-10.3,4.1-13.3,8.2c-2.5,3.4-0.1,8.3,4.2,8.3h44.9
					c3.8,0,6.8-3.3,6.4-7.1c-0.3-3.3-0.7-7.2-0.8-10.2c-0.3-6.5-6.8-11.7-6.8-11.7L1598.6,681.3z"/>
				<path class="st10" d="M1677.7,299.4c2.1-9.2-0.5-15.9-4.7-22.4c-4-6.2-9.7-6.5-15.1-11.8c-5.1-5-14.7-8.3-22.3-8.3
					c-24.3,0-45.4,14.9-40.6,40.2c1.5,8,0.2,14.4,6.7,23.7c8.1,11.7,18,21.1,33.9,21.1c8.4,0,15.8-1.9,22.3-8.1
					c3.5-3.3,8.6-3.8,11.7-7.4C1675.9,319.1,1675.4,309.4,1677.7,299.4z"/>
				<path class="st15" d="M1638.9,377.4c12.8,1.9,23.3-6.3,22.7-19.1l0-1.1c0-2.2-0.8-4.4-2.3-6c-2.5-2.7-6.8-7.9-10.7-15.7
					c-2.6-5.1-5.1-11.3-7-18.4l-21.9,22.6c0,0,1.5,2.2,3.1,5.7c1.8,3.8,3.8,9,4.4,14.4c0.3,2.6,0,5.3-0.3,7.9
					C1626,375.2,1638.9,377.4,1638.9,377.4z"/>
				<path class="st17" d="M1627.2,359.8c15-5.5,21.5-24.3,21.5-24.3l-25.8,9.9C1624.6,349.2,1626.6,354.4,1627.2,359.8z"/>
				<path class="st15" d="M1617,344.8c0,0,35.2,4.3,36-20.5c0.8-24.8-13.9-40.9-23.7-40.7c-19.6,0.4-22.8,8.3-25,16.5
					C1601.9,308.3,1600.8,343.1,1617,344.8z"/>
				<path class="st14" d="M1626.4,330.5c0,0-0.8,3.1-8.5,2.5c0,0-6.5-0.5-6.2-3.9C1611.7,329.2,1618,326.8,1626.4,330.5z"/>
				<path class="st10" d="M1620.5,283.8c0,0,30.1,0,23.2,20.7c-4.4,13,10.1,15.1,10.1,15.1l7-20.9l-4.4-16.3L1620.5,283.8z"/>
				<path class="st10" d="M1648.6,289.4c0,0-24.4,16.5-36.9,9.9c-12.6-6.6-16-10.9-8.8-18.1C1610.1,274,1649.1,274.3,1648.6,289.4z"
					/>
				<path class="st15" d="M1671,369.5c0,0,21,61.3,21.3,84.1c0.3,22.8-6.7,61.9-6.7,61.9l11.7-2.1c0,0,19.6-42.6,17.6-60.3
					c-1.9-17.6,0-45.4-5.2-57C1704.6,384.6,1682,352.5,1671,369.5z"/>
				<path class="st15" d="M1687.2,512.3c0,0-5.5,7.2-7.1,11.5c-1.5,4.3-3,8.6-0.7,8.3c2.3-0.3,4.8-9.5,5-7.4
					c0.2,2.2,2.4,9.4,3.5,13.8s8.3,8.1,10.2,3.5c1.9-4.6,2.9-10.2,4.4-13.5c1.5-3.3-4.1-19.8-4.1-19.8L1687.2,512.3z"/>
				<path class="st15" d="M1638,503.7c1.8,1.5,2.9,3.6,3.1,5.9c0.2,2.1,0.3,4.7,0.2,6.7c-0.2,3.9-0.4,7.9-2.1,6.8
					c-1.8-1-3.1-8.5-4-6.9c-0.9,1.7-2.9,3.6-3.6,11.2c-0.4,3.9-4.1,3.8-7-1.4c-0.8-1.4-2.4-5.3-1.5-9c1.4-6,5-12.6,4.9-14.6
					c-0.2-3.1,5.6-2.3,5.6-2.3L1638,503.7z"/>
				<path class="st16" d="M1611.7,364.7c0,0-6.6,7.3-5.7,22.7c0.9,15.5-0.1,26.8-0.1,26.8s8,5.2,18,0
					C1633.9,409.1,1611.7,364.7,1611.7,364.7z"/>
				<path class="st16" d="M1681,356c0,0-19.3,5.3-13.2,28.5c6.1,23.3,6,27.1,6,27.1s23.8,9.6,41.2-2.6
					C1715,409.1,1698.8,354.2,1681,356z"/>
			</g>
			<g>
				<path class="st15" d="M472.3,412.3c0,0,44.8,119.2,50.9,145.7c6.1,26.5,12.6,123.1,12.6,123.1H511c0,0-27.6-92.6-30.5-110.4
					c-2.9-17.8-96.6-120.2-91.5-137.5C394.2,415.8,472.3,412.3,472.3,412.3z"/>
				<path class="st8" d="M514.4,529.2c0,0-14,17.2-71.8,17.5c0,0-1.4-2-3.7-5.4v0c-5.2-7.7-15-22.8-22.9-38.3
					c-9-17.6-15.7-35.8-10.5-44.3c11.7-19.3,80.7-23.9,80.7-23.9L514.4,529.2z"/>
				<path class="st15" d="M435.7,426.4c0,0-23.8,134.2-40.9,155.2c-17.1,21-86.9,96.7-86.9,96.7l-22.4-3.5c0,0,31.2-95.7,59.6-113.8
					c15.9-10.1,1.2-153.5,45.3-156.4C434.6,401.7,435.7,426.4,435.7,426.4z"/>
				<path class="st15" d="M502.6,305.1c0,0,35.2,85.6,55.9,83.9c20.6-1.7,60.4-26.7,60.4-26.7l-4.6-11.9c0,0-49.4,13.7-53.5,6.6
					c-4.2-7.1-24.2-71.9-33.5-72.9C517.8,283,502.6,305.1,502.6,305.1z"/>
				<path class="st10" d="M311.4,674.4c0,0,5.2,9.4,15.5,11.6c6.5,1.4,12.1,4.8,15.5,9.5c2.9,4,0.1,9.7-4.9,9.7h-52.4
					c-4.5,0-7.9-3.9-7.5-8.3c0.4-3.9,0.8-8.4,1-11.9c0.4-7.6,8-13.7,8-13.7s8.4,3.2,11.3,3.6C301.2,675.5,311.4,674.4,311.4,674.4z"
					/>
				<path class="st10" d="M535.1,672.4c0,0,6.6,11.4,16.9,13.7c6.5,1.4,12.1,4.8,15.5,9.5c2.9,4,0.1,9.7-4.9,9.7h-52.4
					c-4.5,0-7.9-3.9-7.5-8.3c0.4-3.9,0.8-8.4,1-11.9c0.4-7.6,4.9-12,4.9-12s8.1,2.4,12.7,2.1C528.2,674.9,535.1,672.4,535.1,672.4z"
					/>
				<path class="st15" d="M494.6,258c-1.3-2.7-2.1-5.6-2.6-8.6c-1.1-6.7-0.4-13.7,0.6-18.8c0.9-4.7,1.9-7.9,1.9-7.9l-33.9-20.1
					c0.1,9.2-0.9,17.5-2.4,24.5c-3.5,16.8-9.6,26.7-9.6,26.7l0.4,1.7c-4.1,0.2-8.5,0.4-13.2,0.8l43.1,31.5l31.8-20.2
					C510.5,267.6,506.4,260.5,494.6,258z"/>
				<path class="st17" d="M492,249.4c-19.9-1.8-33.9-22.3-33.9-22.3l34.4,3.6C491.7,235.8,491,242.7,492,249.4z"/>
				<g>
					<path class="st15" d="M502.4,238.9c0,0-40.4,8-52.1-24.4c-12.7-35,5.1-58.9,18.7-59.7c27.1-1.7,42.1,9.6,46.2,20.7
						C519.2,186.7,524.6,234.7,502.4,238.9z"/>
					<path class="st14" d="M485.9,219.8c0,0,3.7,6.3,14.3,4.6c0,0,9.6-1.1,7.8-7.7C508,216.6,497.1,213.7,485.9,219.8z"/>
					<g>
						<path class="st11" d="M456.7,226c0,0-3.8-14-2.8-21.2c0,0-9.5-13.9-3.3-16.8c6.2-2.9,9,5.1,10.5,3.7c1.5-1.4,5.3-27.3,12.5-26
							c7.3,1.3,33.9,11.4,46.4,1.9c12.5-9.5-13.8-51.4-63.7-39C406.4,141,413,196,456.7,226z"/>
						<path class="st11" d="M430.9,148.4c0,0-1.8-6.7,0.9-11.3c0,0-0.3,6.5,2.1,9.6C436.2,149.7,430.9,148.4,430.9,148.4z"/>
						<path class="st11" d="M432.2,143.8c0,0-6-1.1-9.2,3.4c0,0,4.4-2.6,8.6,0.7L432.2,143.8z"/>
					</g>
				</g>
				<g>
					<path class="st6" d="M697.6,651.2c0,12.6-4.3,24.2-11.5,33.4c-7.5,9.6-18.1,16.6-30.3,19.5c-4,1-8.3,1.5-12.6,1.5
						c-0.5,0-0.9,0-1.4,0c-13-0.3-24.8-5.2-34-13.1c-5.8-4.9-10.5-11.1-13.8-18c-3.3-7.1-5.2-14.9-5.2-23.2c0-4.4,0.5-8.7,1.5-12.8
						c2.3-9.4,7-17.9,13.4-24.7c8.3-8.8,19.5-14.8,32.1-16.4c2.4-0.3,4.8-0.5,7.3-0.5c14.2,0,27.2,5.5,36.9,14.4
						c8.9,8.2,15,19.3,16.9,31.8C697.4,645.7,697.6,648.4,697.6,651.2z"/>
					<polygon class="st16" points="658.3,636.5 637.5,636.5 627.1,654.5 637.5,672.5 658.3,672.5 668.7,654.5 					"/>
					<path class="st16" d="M686.1,684.6c-7.5,9.6-18.1,16.6-30.3,19.5l-1-1.7l10.4-18H686L686.1,684.6z"/>
					<path class="st16" d="M697,643h-14.5l-10.4-18l8-13.8C689,619.4,695.1,630.5,697,643z"/>
					<path class="st16" d="M639.9,604.2l-10.4,18h-20.8l-4.9-8.5c8.3-8.8,19.5-14.8,32.1-16.4L639.9,604.2z"/>
					<path class="st16" d="M613.2,656.4l-10.4,18H594c-3.3-7.1-5.2-14.9-5.2-23.2c0-4.4,0.5-8.7,1.5-12.8h12.4L613.2,656.4z"/>
					<path class="st16" d="M642.3,704.8l-0.4,0.8c-13-0.3-24.8-5.2-34-13.1l3.3-5.7h20.8L642.3,704.8z"/>
				</g>
				<path class="st7" d="M438.8,541.3c-5.2-7.7-15-22.8-22.9-38.3l33.9-17.4C449.8,485.7,433.6,523.6,438.8,541.3z"/>
				<path class="st8" d="M364.3,412.3c0,0-16.1,35.7-20.7,69.1c-4.6,33.4-5.8,45.4-5.8,45.4s31.5,27.5,77.1,19.8
					c0,0,61.5-103.8,58.1-110.7C469.6,429.1,380.3,405.3,364.3,412.3z"/>
				<path class="st6" d="M520.8,271.8c-4-10.2-26.3-14.1-26.3-14.1c-1.1,5.5-4.6,10.5-15.4,9.2c-14.5-1.8-21.8-13.3-26.7-20.7
					c0,0-36.7-7.7-49.9,8.2c-8.6,10.4-19,61.6-19,61.6l-3.8,35.8L349,417.5c-0.3,0.6-0.5,1.2-0.6,1.8c-1.1,4.6,1.4,9.6,6.2,12
					c0,0,1.1,0.5,3.3,1.3c14.2,5.4,72,26.2,121.4,26.1c11.1,0,20.2-7.4,21.7-17.3l17.2-113.9C518.1,327.4,526.8,287,520.8,271.8z"/>
				<path class="st6" d="M514.4,265c0,0,22.5,11.9,30.8,39c0,0-6,29.9-33.7,36.2C483.9,346.5,514.4,265,514.4,265z"/>
				<path class="st15" d="M614.2,350.3c0,0,15.5-14.7,18.1-11.5c2.6,3.2,5.8,14.4,1.4,20.7c-4.3,6.3-15,2.7-15,2.7L614.2,350.3z"/>
				<g>
					<path class="st15" d="M389.4,399c0,0,10.8-3.7,18.4-0.5c7.5,3.2,8.6,14.8,6.7,15.6c-4.5,2-6-1.9-13.4-1.1
						c-7.4,0.7-13.1,4.6-25.1-5.1C364.9,398.9,389.4,399,389.4,399z"/>
					<path class="st15" d="M390.9,399.5c0,0,8-5.3,9.3-6.2c1.2-0.9,1.4,2.4-1.4,5.1C395.9,401.1,390.9,399.5,390.9,399.5z"/>
				</g>
				<path class="st15" d="M383.1,269.2c0,0-68.3,75.6-56.8,95.3c11.5,19.7,55.2,47.3,55.2,47.3l9.7-10.2c0,0-37.1-42.5-32-50.1
					c5.1-7.5,63.1-54,59.7-63.8C415.5,278,383.1,269.2,383.1,269.2z"/>
				<path class="st6" d="M424.8,244.4c0,0-39,5-60.5,39.5c0,0,3.7,37.9,44,35.6C434.7,318,424.8,244.4,424.8,244.4z"/>
			</g>
			<rect x="228.2" y="219.8" class="st2" width="10.2" height="18.8"/>
			<rect x="293" y="219.8" class="st2" width="10.2" height="18.8"/>
			<rect x="276.4" y="270.1" class="st2" width="10.2" height="18.8"/>
			<rect x="247.5" y="322.1" class="st2" width="10.2" height="18.8"/>
			<rect x="293.8" y="401" class="st2" width="10.2" height="18.8"/>
			<rect x="735.2" y="339.1" class="st2" width="10.2" height="18.8"/>
			<rect x="818.7" y="431.5" class="st2" width="10.2" height="18.8"/>
			<rect x="670.9" y="427.7" class="st2" width="10.2" height="18.8"/>
			<rect x="752.7" y="229" class="st2" width="10.2" height="18.8"/>
			<rect x="800.6" y="286.6" class="st2" width="10.2" height="18.8"/>
			<rect x="1110.9" y="228.2" class="st2" width="10.2" height="18.8"/>
			<rect x="1088.7" y="286.6" class="st2" width="10.2" height="18.8"/>
			<rect x="1116" y="450.3" class="st2" width="10.2" height="18.8"/>
			<path class="st18" d="M928.6,149.2c1.8-45.9-34.7-67.5-73.9-69.5c-2-0.1-60.6-0.1-62.6-0.1c-41.3,0-86.3,10.7-90.1,74.8
				c-2.5,41.2,19.4,66.6,82.8,66.6c2.4,0,61.3,0,63.6-0.1c18.1-0.7,32.4-3.9,43.7-9.3l31.6,28.2l-15.5-38.9
				C921.9,188.1,927.8,170,928.6,149.2z"/>
			<g>
				<path class="st14" d="M747.7,117.4l-5,26.2h25l5-26.2h7.3l-11.7,61.8H761l5.5-29.1h-25.1l-5.4,29.1h-7.3l11.7-61.8H747.7z"/>
				<path class="st14" d="M810.7,176.8c-3.3,1.8-8.1,3.3-13.4,3.3c-11,0-15.5-7.8-15.5-17.2c0-12.9,9-28.9,22.7-28.9
					c7.9,0,11.8,5,11.8,11c0,11.4-12,14.9-27.2,14.7c-0.3,1.7-0.2,6.1,0.7,8.6c1.6,3.9,4.7,5.9,9,5.9c4.7,0,8.2-1.5,10.7-2.8
					L810.7,176.8z M803.5,139.8c-6.3,0-11.4,6.4-13.4,14.1c10.5,0.1,19.3-1.7,19.3-8.8C809.4,141.7,807,139.8,803.5,139.8z"/>
				<path class="st14" d="M819.4,179.2l5.5-29c1-5.8,1.7-11.6,2.1-15.4h6.4c-0.3,2.8-0.6,5.8-1.1,9.3h0.3
					c2.8-5.9,7.3-10.2,12.8-10.2c0.6,0,1.4,0.1,1.8,0.2l-1.4,7.3c-0.5-0.1-1-0.2-1.7-0.2c-6.3,0-11.9,8.1-13.7,17.2l-3.9,20.7H819.4
					z"/>
				<path class="st14" d="M875.4,176.8c-3.3,1.8-8.1,3.3-13.4,3.3c-11,0-15.5-7.8-15.5-17.2c0-12.9,9-28.9,22.7-28.9
					c7.9,0,11.8,5,11.8,11c0,11.4-12,14.9-27.2,14.7c-0.3,1.7-0.2,6.1,0.7,8.6c1.6,3.9,4.7,5.9,9,5.9c4.7,0,8.2-1.5,10.7-2.8
					L875.4,176.8z M868.2,139.8c-6.3,0-11.4,6.4-13.4,14.1c10.5,0.1,19.3-1.7,19.3-8.8C874.1,141.7,871.7,139.8,868.2,139.8z"/>
				<path class="st14" d="M883.8,175c0-3.2,2.4-6,5.5-6c3,0,4.9,2.3,4.9,5.2c0,3.2-2.3,5.9-5.6,5.9
					C885.7,180.2,883.8,177.9,883.8,175z M888.5,161.6l7.3-44.2h8.3l-9.7,44.2H888.5z"/>
			</g>
		</g>
	</g>
</g>
</svg>
