<?xml version="1.0" encoding="utf-8"?>
<!-- Generator: Adobe Illustrator 22.0.0, SVG Export Plug-In . SVG Version: 6.00 Build 0)  -->
<svg version="1.1" id="_x2018_лой_x5F_1" xmlns="http://www.w3.org/2000/svg" xmlns:xlink="http://www.w3.org/1999/xlink"
	 x="0px" y="0px" viewBox="0 0 1864 704.2" style="enable-background:new 0 0 1864 704.2;" xml:space="preserve">
<style type="text/css">
	.st0{fill:#2B478B;}
	.st1{clip-path:url(#SVGID_2_);}
	.st2{fill:#FFFFFF;}
	.st3{fill:#FD5E5A;}
	.st4{fill:#190E1C;}
	.st5{fill:#381A3F;}
	.st6{fill:#653870;}
	.st7{fill:#1C1C1C;}
	.st8{fill:#D4145A;}
	.st9{fill:#31302C;}
	.st10{fill:#FC7575;}
	.st11{fill:#111F59;}
	.st12{fill:#172866;}
	.st13{opacity:0.35;}
	.st14{fill:#757AD8;}
	.st15{opacity:0.69;}
	.st16{fill:#1B3753;}
	.st17{fill:#FF0000;}
	.st18{fill:#84608D;}
	.st19{fill:#280017;}
	.st20{fill:#231F20;}
	.st21{fill:#592C13;}
	.st22{opacity:0.49;fill:#D4145A;}
	.st23{fill:#59565F;}
	.st24{fill:#42210B;}
	.st25{fill:#052F43;}
	.st26{fill:#031822;}
	.st27{fill:#E85653;}
	.st28{fill:#380021;}
	.st29{fill:#7C7D99;}
	.st30{fill:#62657C;}
	.st31{fill:#F57408;}
	.st32{fill:#1F0140;}
	.st33{fill:#2E34A2;}
	.st34{fill:#2D015C;}
	.st35{fill:#F78500;}
	.st36{fill:#FFF7CF;}
	.st37{fill:#753A00;}
	.st38{fill:#1B2B80;}
	.st39{fill:#0C0F40;}
	.st40{fill:#380610;}
	.st41{fill:#ACAFE8;}
	.st42{fill:#700B1F;}
	.st43{fill:#BD2543;}
	.st44{fill:#540817;}
	.st45{fill:#2E0028;}
	.st46{fill:#004F70;}
	.st47{fill:#D5D6E3;}
	.st48{fill:#86B3C6;}
	.st49{fill:#7EFCCB;}
	.st50{fill:#0B678D;}
</style>
<path class="st0" d="M783.3,97c1.8-45.9-34.7-67.5-73.9-69.5c-2-0.1-60.6-0.1-62.6-0.1c-41.3,0-86.3,10.7-90.1,74.8
	c-2.5,41.2,19.4,66.6,82.8,66.6c2.4,0,61.3,0,63.6-0.1c18.1-0.7,32.4-3.9,43.7-9.3l31.6,28.2l-15.5-38.9
	C776.6,135.9,782.5,117.8,783.3,97z"/>
<path class="st0" d="M1160.2,148.2c16.3,14.4,38.3,19.3,59.7,20.2c2.3,0.1,99,0.1,101.4,0.1c63.4,0,85.3-25.4,82.8-66.6
	c-3.8-64.1-48.8-74.8-90.1-74.8c-2,0-98.4,0-100.4,0.1c-39.2,2-75.7,23.6-73.9,69.5l-53.5,19.7l57.1,4c0.5,1.8,1.1,3.5,1.8,5.2
	c2.9,7.7,7.2,15.1,13.2,20.8C1158.9,147,1159.5,147.6,1160.2,148.2z"/>
<g>
	<defs>
		<path id="SVGID_1_" d="M783.3,97c1.8-45.9-34.7-67.5-73.9-69.5c-2-0.1-60.6-0.1-62.6-0.1c-41.3,0-86.3,10.7-90.1,74.8
			c-2.5,41.2,19.4,66.6,82.8,66.6c2.4,0,61.3,0,63.6-0.1c18.1-0.7,32.4-3.9,43.7-9.3l31.6,28.2l-15.5-38.9
			C776.6,135.9,782.5,117.8,783.3,97z"/>
	</defs>
	<clipPath id="SVGID_2_">
		<use xlink:href="#SVGID_1_"  style="overflow:visible;"/>
	</clipPath>
	<g class="st1">
		<path class="st2" d="M552.5,111.7c0-1,0-2.1,0-3.1c0.3,0,0.7,0,1,0c11.1,0,35.1,0,46.2,0c0.3,0,0.5,0,0.8,0
			c-0.1-0.9-0.2-1.8-0.3-2.6c-0.1-0.9-0.2-1.9-0.2-2.8c0.1-3.1,0.7-6.1,1.8-9c0.1-0.1,0.1-0.3,0.1-0.5c-0.4,0-0.6,0-0.9,0
			c-11.5,0-36.1,0-47.6,0c-0.3,0-0.7,0-1-0.1c0-1,0-2,0-3c12.7,0,38.4,0,51,0c0.1-0.2,0.2-0.3,0.2-0.4c1.4-2.4,2.9-4.7,4.8-6.8
			c1.5-1.7,3.1-3.4,4.7-5.1c0.7-0.7,1.4-1.4,2.1-2.1c0.2-0.2,0.3-0.3,0.5-0.5c0,0,0-0.1-0.1-0.1c-0.3,0-0.5,0-0.8,0
			c-16.1,0-41.2,0-57.3,0c-0.4,0-0.7,0-1.1,0c0-1,0-2,0-3c0.4,0,0.7,0,1.1,0c17.1,0,43.1,0,60.2,0c1.5,0,1.5,0,2.5-1.1
			c0.2-0.3,0.3-0.5,0.2-0.9c-0.8-4.2-1.4-8.4-1.4-12.6c0-0.1,0-0.3-0.1-0.4c-0.3,0-0.6,0-0.9,0c-17.2,0-43.3,0-60.5,0
			c-0.4,0-0.7,0-1.1,0c0-1,0-2.1,0-3.1c0.4,0,0.7,0,1.1,0c17.2,0,43.4,0,60.6,0c0.2,0,0.4,0,0.6,0c0.2,0,0.3,0,0.5-0.1
			c0.2-1.9,0.6-3.7,1.1-5.5c0.5-1.6,1.1-3.1,2-4.5c0.7-1.1,1.4-2.1,2.2-3.1c1.1-1.5,2.2-3,3.6-4.2c1.4-1.3,3-2.4,5-2.7
			c0.1,0,0.1-0.1,0.2-0.1c0.2,0,0.4,0,0.5,0c0.1,0.1,0.1,0.3,0.2,0.4c2.2,3,3.5,6.5,4.2,10.1c0.6,3.1,0.7,6.2,0.7,9.3
			c0,0.1,0,0.3,0,0.4c0.9,0.1,46,0.1,46.5,0c0-6.7,0-13.4,0-20.1c0.9,0,1.8,0,2.7,0c0,0.3,0,0.5,0,0.8c0,6.2,0,12.4,0,18.6
			c0,0.3,0,0.5,0,0.8c0.4,0,0.7,0,1,0c46.3,0,70.6,0,104.9,0c0.3,0,0.5,0,0.8,0c0,1,0,2.1,0,3.1c-0.3,0-0.6,0-0.9,0
			c-34.2,0-58.4,0-104.6,0c-0.2,0-0.4,0-0.6,0c-0.1,0-0.3,0-0.4,0.1c0,5,0,10,0,15c0.4,0,0.7,0,1,0c46.2,0,70.5,0,104.7,0
			c0.3,0,0.6,0,0.9,0c0,1,0,2,0,3c-0.3,0-0.6,0-0.9,0c-30,0-38.1,0-68.1,0c-0.2,0-0.4,0-0.5,0c-0.1,0-0.3,0-0.6,0.1
			c0.3,0.2,0.5,0.3,0.7,0.4c1,0.5,1.9,1.1,2.8,1.9c1.5,1.4,2.3,3,2.3,5.1c0,2.3,0,4.6,0,6.8c0,0.2,0,0.5,0,0.7c28.9,0,35.7,0,64.5,0
			c0,1,0,2.1,0,3.1c-0.3,0-0.6-0.1-0.9-0.1c-18.5,0-28.9,0-47.4,0c-9.8,0-5.5,0-15.3,0c-0.3,0-0.6,0-0.8,0c-0.1,0.9-0.1,14.5,0,15
			c0.3,0,0.6,0,0.9,0c28.2,0,34.5,0,62.7,0c0.3,0,0.5,0,0.8,0c0,1,0,2.1,0,3.1c-0.3,0-0.6,0-0.9,0c-21.3,0-34.5,0-55.8,0
			c-7,0,0,0-6.9,0c-0.3,0-0.5,0-0.8,0c-0.1,1.1-0.1,14.5,0.1,15c0.3,0,0.5,0,0.8,0c28.3,0,34.5,0,62.8,0c0.3,0,0.5,0,0.8-0.1
			c0,1,0,2.1,0,3.1c-28.8,0-35.6,0-64.5,0c0,6.4,0,12.6,0,18.9c-0.9,0-1.8,0-2.7,0c0-0.3,0-0.6,0-0.8c0-5.7,0-11.5,0-17.2
			c0-0.3,0-0.6,0-0.8c-1.5-0.2-95.7-0.1-96.2,0.1c0.2,1.7,0.5,3.4,0.7,5.1c0.4,2.4,0.6,4.8,0.6,7.2c-0.1,2.2-0.3,4.3-1.1,6.4
			c-1,3-2.9,5.3-5.7,6.7c-1.5,0.8-3.1,1.3-4.8,1.6c-0.1,0-0.3,0.1-0.4,0.1c-1.3,0-2.5,0-3.8,0c-0.4-0.1-0.7-0.2-1.1-0.3
			c-2.7-0.6-4.9-2-6.2-4.4c-1.6-2.8-1.4-5.8,0-8.6c1.8-3.5,4.6-4.3,7.8-4.1c2.1,0.2,3.6,1.4,4.6,3.2c1.7,2.8,1.6,6.5-1.3,9
			c-1.3,1.1-2.8,2-4.5,2.6c-0.2,0-0.3,0.1-0.5,0.2c0.1,0.1,0.1,0.1,0.2,0.1c0.2,0.1,0.5,0.2,0.7,0.4c2,1.2,4.2,1.2,6.3,0.3
			c3.8-1.6,6.4-4.3,7.7-8.2c0.9-2.8,1-5.7,0.6-8.6c-0.2-2.1-0.6-4.2-0.9-6.4c-0.1-0.8-0.2-1.5-0.4-2.3c-21.4,0-51.8,0-73.1,0
			c0-1,0-2,0-3c0.4,0,0.7-0.1,1.1-0.1c15.5,0,40.1,0,55.6,0c0.2,0,0.4,0,0.6,0c0.1,0,0.3,0,0.6-0.1c-6.6-3.1-10.8-8.2-13.1-14.9
			c-0.3,0-0.6,0-0.9,0c-11.3,0-35.6,0-46.9,0C553.2,111.7,552.9,111.7,552.5,111.7z M634.2,126.6c0.1,0.1,0.1,0.1,0.2,0.1
			c0.2,0,0.4,0,0.6,0c26.4,0,65.9,0,92.3,0c0,0,0,0,0.1,0c0,0,0,0,0.1-0.1c0-4.9,0-9.9,0-14.8c-22.9,0-58.7,0-81.6,0
			C644.4,118.6,640.8,123.7,634.2,126.6z M685.3,75.5c-0.4,0-0.6,0-0.9,0c-16.3,0-39.7,0-56,0c-0.1,0-0.3,0-0.4,0
			c-0.3,0-0.5,0.1-0.7,0.3c-1.1,1.1-2.1,2.2-3.2,3.3c-0.3,0.3-0.3,0.6-0.3,1c0.4,2.6,0.8,5.1,1.2,7.7c0.1,0.9,0.3,1.8,0.4,2.7
			c17.7,0,42.3,0,59.9,0C685.3,85.5,685.3,80.6,685.3,75.5z M638.4,57.5c-0.5,2.6-1.5,5-2.7,7.3c-1.4,2.5-3,4.9-4.9,7.1
			c-0.1,0.2-0.3,0.4-0.5,0.6c16.1,0,39,0,55,0c0-5,0-10,0-15C672,57.5,651.7,57.5,638.4,57.5z M679.7,108.5c1,0.2,47.3,0.1,47.7,0
			c0-4.9,0-9.9,0-14.8c-0.8-0.1-38.8-0.1-39.3,0c0,0.2,0,0.5,0,0.7c0,2,0,4,0,6c0,0.4,0,0.9-0.1,1.3c-0.3,1.5-1.1,2.7-2.3,3.7
			c-1.4,1.2-2.9,2.1-4.7,2.7C680.6,108.2,680.2,108.4,679.7,108.5z M607,111.7c0,0.2,0.1,0.4,0.1,0.6c0.2,0.7,0.4,1.3,0.6,2
			c0.8,3,2.4,5.5,4.7,7.6c2.8,2.5,6,4,9.7,4.4c1.8,0.2,3.6,0.1,5.4-0.1c0.6-0.1,1.1-0.2,1.7-0.3c-0.7-4.8-1.5-9.6-2.2-14.3
			c-3.3,0-6.5,0-9.8,0c0.8,3,2.8,5,5.3,6.7c-0.6,0.4-1.2,0.5-1.8,0.4c-0.7-0.2-1.3-0.4-1.9-0.8c-2.3-1.5-4.2-3.5-5.5-6
			c0-0.1-0.1-0.2-0.2-0.3C611.1,111.7,609.1,111.7,607,111.7z M719,75.5c-0.5,0-1,0-1.5,0.1c-4,0.8-7.1,3-9.4,6.3
			c-0.6,0.9-1,1.9-1.2,2.9c-0.4,2,0.6,3.6,2.5,4.1c0.9,0.3,1.8,0.3,2.7,0.2c4.2-0.7,7.5-2.8,9.9-6.2c0.6-0.8,1.1-1.8,1.3-2.8
			c0.6-2.3-0.5-4.1-2.7-4.5C720,75.5,719.5,75.5,719,75.5z M638.9,93.7c0.8,0.8,1.7,1.6,2.4,2.5c2.4,2.9,3.6,6.3,4.3,10
			c0.2,0.8,0.2,1.6,0.3,2.4c4.8,0,16.5,0,21.2,0c-0.2-0.2-0.4-0.2-0.6-0.3c-1.3-0.4-2.6-1-3.8-1.8c-1.2-0.8-2.2-1.7-3-2.9
			c-0.8-1.3-1.1-2.7-0.8-4.2c0.3-1.2,0.9-2.2,1.7-3.1c0.9-0.9,1.9-1.6,3-2.2c0.2-0.1,0.4-0.2,0.7-0.4
			C663.8,93.6,639.6,93.6,638.9,93.7z M688.1,90.5c1.6,0.1,20.8,0.1,21.3-0.1c-0.8-0.3-1.6-0.6-2.4-0.9c-1.7-0.7-3.2-1.7-4.4-3.1
			c-0.8-1-1.4-2.1-1.5-3.4c-0.1-1.6,0.4-3,1.4-4.2c1-1.2,2.2-2.1,3.6-2.8c0.2-0.1,0.4-0.2,0.6-0.4c-1.8-0.2-18.2-0.1-18.6,0.1
			C688.1,80.6,688.1,85.5,688.1,90.5z M634.1,39.4c-0.7,0.6-1.4,1.2-2,1.9c-3.5,3.7-6.1,8-8.1,12.7c-0.1,0.1-0.1,0.3-0.1,0.4
			c3.7,0,7.3,0,10.9,0c1.2-2.3,2-6,1.8-9C636.3,43.1,635.5,41.2,634.1,39.4z M628.6,111.7c0,1.3,2,13.2,2.4,14
			c3.1-1.1,5.4-3.1,7-5.9c1.5-2.5,2.2-5.1,2.1-8C636.2,111.7,632.4,111.7,628.6,111.7z M628.1,108.6c3.9,0,7.8,0,11.6,0
			c-0.7-3.4-2-6.4-5.1-8.2c-2.4-1.3-6.4-2.1-7.8-1.5C627.2,102.1,627.6,105.3,628.1,108.6z M618.6,93.7c-0.1,0-0.2-0.1-0.3-0.1
			c-2.4,0-4.8,0-7.2,0c-0.3,0-0.4,0.1-0.6,0.3c-2.7,3.6-4.1,7.6-4.2,12.1c0,0.8,0,1.7,0.1,2.6c2,0,3.9,0,5.8,0
			C611.7,102.5,614,97.7,618.6,93.7z M622.2,69.7c2.1-1.1,10.1-10.2,10.7-12.2c-3.4,0-6.9,0-10.3,0c-0.1,0.1-0.1,0.3-0.1,0.4
			c-0.3,1.2-0.6,2.4-0.8,3.6c-0.2,1.2-0.3,2.4-0.1,3.6c0.1,0.9,0.2,1.8,0.4,2.7C622,68.4,622.1,69,622.2,69.7z M625,99.1
			c-0.4,0.1-0.7,0.2-1,0.3c-3.1,1.4-5.2,3.6-6.5,6.7c-0.3,0.8-0.5,1.6-0.5,2.4c0.8,0.1,8.9,0.1,9.4,0
			C626,105.4,625.5,102.3,625,99.1z M623.8,90.5c-0.5-3.2-1-6.3-1.6-9.6c-3.1,3.2-6.2,6.1-9.1,9.6C616.8,90.5,620.2,90.5,623.8,90.5
			z M721.9,90.5c1.8,0,3.7,0,5.5,0c0-0.9,0-1.8,0-2.8C725.7,89.1,723.8,89.8,721.9,90.5z M682.6,93.7
			C682.6,93.7,682.6,93.7,682.6,93.7c0.9,0.6,1.7,1.2,2.7,1.7c0-0.6,0-1.2,0-1.7C684.4,93.7,683.5,93.7,682.6,93.7z"/>
	</g>
</g>
<g>
	<path class="st3" d="M1091.7,158.5l-15.9-1.6c0,0-6.5,16.1-1,22.2s15,2.1,19.8,7.5c1.7,1.9,5.4,9.3,9.2,18.4l25.9-3.2
		C1117.7,181.5,1091.7,158.5,1091.7,158.5z"/>
	<g>
		<polygon class="st4" points="1120.3,379.5 966.4,423.5 1020.5,284.5 		"/>
		<polygon class="st5" points="906.3,674.6 891.9,705.3 926.4,705.3 917.8,686.5 923.9,674.6 		"/>
		<polygon class="st5" points="1144.3,680.4 1148.2,690 1148.2,696.5 1141.6,709.3 1169.3,709.3 1164.3,694.9 1161.1,683.4 		"/>
		<path class="st6" d="M1013.1,364.8l-74.7,183.7l-17.1,29.4l-29.4,108.3l40.8,5.1c0,0,91.5-276.4,109.9-276.4s21.9,3.8,21.9,3.8
			l77.1,272.2l30.6-1.2l-79.4-319.5L1013.1,364.8z"/>
		<path class="st7" d="M1044.8,230.2c0,0,35.3,22.2,59.7,22.2c4,0,17.8,1.5,20.8-1.3c15.4-14,8.5-60,8.5-60l-34.8,3.3
			c0,0,18.2,36.5-2.5,26.2c-20.7-10.3-73.1-40.2-73.1-40.2L1044.8,230.2z"/>
		<path class="st8" d="M932.7,209.1c0,0,41.4,84.7,53.5,94.1c14.3,11.2,12.1,95.2,12.1,95.2l97.2-25.3
			c-5.9-22.3-17.9-81.6-25.2-98.4c-7.2-16.6-15.9-45.3-24.6-65.6c-8.6-20.3-17.1-31.4-36.2-31.4
			C990.4,177.8,940.9,171.3,932.7,209.1z"/>
		<path class="st9" d="M1049.5,275.3c5.2,23.5,36.6,81.1,37.9,93.1l32.8,11.1c-5.9-22.3-42.6-87.9-49.9-104.8
			c-7.2-16.6-15.9-45.3-24.6-65.6c-8.6-20.3-17.1-31.4-36.2-31.4c-3.6,0-8.4-0.2-13.8-0.3C1021.7,205.3,1041.3,238.4,1049.5,275.3z"
			/>
		<g>
			<path class="st10" d="M996.6,147.7c0,0-2.5,25.2,5.2,37.5c2.5,4-0.3,9.1-5.1,9.3c-2.8,0.1-6.5-0.3-11.4-1.6
				c-4.7-1.3-12.1-5.5-13.9-11.1c-5.4-17.3,4.9-48.2,4.9-48.2L996.6,147.7z"/>
			<path class="st3" d="M973.6,143.2c1.4-5.8,2.7-9.7,2.7-9.7l20.3,14.1c0,0-0.7,7.2-0.2,15.8C989.8,162.1,981.1,157.3,973.6,143.2z
				"/>
			<path class="st10" d="M1002.7,87.7c0,0,4.4-1.6,8.1,3.8c3.7,5.4,7.1,23.5,3.9,40.2c-3.2,16.7-7.1,25.5-14.6,25.5
				s-20.1-5.5-30.3-28.1C959.5,106.5,962.9,80.6,1002.7,87.7z"/>
			<path class="st11" d="M1004,101.4c1.7,0,9.4,1.1,12-14c2.7-15.1-14.1-33.5-25.6-28.6c-11.5,4.9,3.1,13.5,3.1,13.5
				s-8.3-4.5-10.8,0.7c-2.4,5.2,1.2,7.5,0,8.7c-1.2,1.2-9.1-9.4-17.9-0.9c-8.8,8.4-2.9,13.6-5.1,18.3c-2.2,4.7-12.3,11.5-2.2,27.3
				c6.4,10,17.4,11.9,17.4,11.9s-1.7-5.4-1.7-12.4c0-7.1,5.9-1.4,5.9-1.4s-2.7-0.5-2.7-7.5c0-7.5-3.2-13.6-3.2-15.5
				c0-1.9-0.7-6.9,7.6-3.6C989.1,101.3,1004,101.4,1004,101.4z"/>
			<g>
				<path class="st12" d="M1000.6,131.9c-0.6,0.1-0.7-0.9-0.1-0.9l6.4-0.6l-1.6-15.9c0.7,4.5,2.1,12.9,2.7,16.7
					C1007.8,131.2,1000.2,131.9,1000.6,131.9z"/>
				<path class="st12" d="M985.2,114.2c4.9-7.2,12.6-2.6,12.7-2.6c0.5,0.3,0,1.1-0.5,0.8c-0.3-0.2-7-4.2-11.3,2.3
					c-0.1,0.2-0.4,0.3-0.7,0.1C985.1,114.7,985.1,114.4,985.2,114.2z"/>
				<path class="st12" d="M1014.1,107.5c0.3,0,0.5,0.2,0.5,0.5c0,0.3-0.2,0.5-0.5,0.5c-4.2,0-5,4-5.1,4.2c-0.1,0.6-1.1,0.4-1-0.2
					C1008.1,112.4,1009.1,107.5,1014.1,107.5z"/>
			</g>
			<path class="st12" d="M1007.4,117c0,4.4,3.5,8,7.7,8c4.3,0,7.7-3.6,7.7-8c0-4.4-3.5-8-7.7-8C1010.9,109,1007.4,112.6,1007.4,117z
				"/>
			<path class="st12" d="M988.5,117.6c0,4.4,3.5,8,7.7,8c4.3,0,7.7-3.6,7.7-8c0-4.4-3.5-8-7.7-8C992,109.6,988.5,113.2,988.5,117.6z
				"/>
			<g class="st13">
				<path class="st14" d="M1010.7,110.5l11.4,10.1c-0.3,0.6-0.6,1.1-1,1.6l-11.8-10.4C1009.7,111.3,1010.1,110.9,1010.7,110.5z"/>
				<path class="st14" d="M1008.3,113.4l11.4,10.1c-0.3,0.2-0.5,0.4-0.8,0.5l-11-9.7C1008,114,1008.1,113.7,1008.3,113.4z"/>
			</g>
			<g class="st15">
				<path class="st14" d="M991.1,111.6l11.6,10.3c-0.3,0.5-0.7,1-1.2,1.5l-11.7-10.3C990.2,112.6,990.6,112.1,991.1,111.6z"/>
				<path class="st14" d="M989,114.8l11.1,9.8c-0.3,0.2-0.6,0.3-0.9,0.5l-10.5-9.2C988.8,115.4,988.9,115.1,989,114.8z"/>
			</g>
			<g>
				<rect x="1003.3" y="116.6" class="st12" width="4.1" height="0.9"/>
			</g>
			<g>
				<path class="st12" d="M988.7,117.2c-0.3-0.1-8.4-2.7-14.4-1.3c-0.6,0.1-0.4,1.1,0.2,0.9c5.8-1.4,13.8,1.2,13.9,1.2
					C989,118.3,989.3,117.4,988.7,117.2z"/>
			</g>
			<path class="st10" d="M981.1,128.5c0,0,0.5-10.6-8.1-12.7c-8.6-2.1-7.4,7.2-2.7,11.8C975.1,132.1,981.1,128.5,981.1,128.5z"/>
			<path class="st3" d="M973,118.9c3.6-0.9,5.1,3.9,5.3,4.4c0.5,1.6,0.3,3-2.8,3.6C972.5,127.4,969.4,119.9,973,118.9z"/>
			<g>
				<path class="st16" d="M1005.9,140.2c0.2-0.6,0.4-2.2-1.4-2.3c-2.4-0.1-2.1,0-4.2-0.6c-2.1-0.6-3.5-1.5-5.2,0.4
					c-1.6,1.9-1.7,6.6-0.8,8.4c0.9,1.8,2.9,3.1,5.8,3.2c2.9,0.1,4.5-0.9,5.7-2.5C1007,144.9,1004.9,143.5,1005.9,140.2z"/>
				<path d="M1005.9,140.2c0.2-0.6,0.4-2.2-1.4-2.3c-2.4-0.1-2.1,0-4.2-0.6c-2.1-0.6-3.5-1.5-5.2,0.4c-1.6,1.9-1.7,6.6-0.8,8.4
					c0.9,1.8,2.9,3.1,5.8,3.2c2.9,0.1,4.5-0.9,5.7-2.5C1007,144.9,1004.9,143.5,1005.9,140.2z"/>
				<path class="st2" d="M1005.9,140.2c0.2-0.6,0.4-2.2-1.4-2.3c-2.4-0.1-2.1,0-4.2-0.6c-1.6-0.4-2.8-1.1-4-0.6c0,0,0,0,0,0
					c0,0,0,0,0,0c-0.1,0.6-0.1,1.4,0.1,1.6c0.4,0.4,6.2,2.3,9.4,2.2C1005.8,140.5,1005.8,140.3,1005.9,140.2z"/>
				<path class="st17" d="M996.4,142.7c-1.1,0.2-1.9,0.8-2.5,1.3c0.1,0.8,0.3,1.5,0.5,1.9c0.9,1.8,2.9,3.1,5.8,3.2
					c2.4,0.1,3.8-0.5,4.9-1.7c0.2-1,0.3-2,0.2-2.2C1004.7,144.8,999.2,142.1,996.4,142.7z"/>
				<path class="st2" d="M1000.2,149.2c2.9,0.1,4.5-0.9,5.7-2.5c0.3-0.4,0.3-0.7,0.4-1.1c-0.5-0.3-0.9-0.6-1-0.5
					c-0.3,0.3-3,3.4-7.4,2c-2.9-0.9-3.7-2.3-3.9-3.1c0.1,0.8,0.3,1.6,0.5,2C995.3,147.8,997.3,149.1,1000.2,149.2z"/>
			</g>
		</g>
		<path class="st9" d="M1014.2,422.1c3.9-11.6,21.7-112.1,17.2-135.7c-7.8-41.4-60.6-107.7-60.8-108c-19.2,3-33.6,10.8-37.9,30.8
			c0,0,41.4,84.7,53.5,94.1c14.3,11.2-19.8,120.2-19.8,120.2S1010.8,431.9,1014.2,422.1z"/>
		<g>
			<path class="st18" d="M921.9,645.6C921.8,645.6,921.8,645.6,921.9,645.6c-0.6,0-1-0.5-1-1c2.7-97.3,85.5-201.9,86.4-202.9
				c0.3-0.4,1-0.5,1.4-0.2c0.4,0.3,0.5,0.9,0.2,1.4c-0.8,1-83.3,105.1-85.9,201.8C922.8,645.2,922.4,645.6,921.9,645.6z"/>
		</g>
	</g>
	<g>
		<path class="st19" d="M653.2,489.9c0,0,41.1,43.5,139.9,56.4l-18.9-50.6l-57.2-19L653.2,489.9z"/>
		<path class="st3" d="M691.4,482.5c0,0,0,67.4,0,78.5c0,11.1,81.2,93.8,86.9,99.8c5.6,6,0,30.5,0,30.5s-3.9,2.3-3.9,12.9h23
			c0,0-4.3-30-4.3-37.9c0-7.9-22.6-78.2-34.4-90.8c-11.8-12.6-17.2-6-31.7-21.5c0,0,10.4-38.8,10.4-47.6
			C737.5,497.8,691.4,482.5,691.4,482.5z"/>
		<path class="st20" d="M795.4,689.1c-2.2,3.1-5.8,7.4-9.5,7.4c-3.2,0-6.1-2.6-7.9-4.9c-0.9,0.8-3.6,4-3.6,12.7h23
			C797.4,704.2,796.4,697.2,795.4,689.1z"/>
		<path class="st10" d="M730.4,482.5c0,0,0,67.4,0,78.5c0,11.1,92.8,93.8,98.5,99.8c5.6,6-7.1,30.5-7.1,30.5s-8.4,2.3-8.4,12.9h23
			c0,0,6.5-30,6.5-37.9c0-7.9-33.3-78.2-45.2-90.8c-11.8-12.6-17.2-6-31.7-21.5c0,0,10.4-38.8,10.4-47.6
			C776.4,497.8,730.4,482.5,730.4,482.5z"/>
		<path class="st3" d="M855.8,218.6c-6.7-7.1-75.7,0.2-83,8c-7.8,8.3-23.5,74.5-36.1,74.5c-12.6,0-46.7-52-50.2-62.5
			c-3.5-10.5,2.3-23.1,2.3-27.5c0-4.4,0.9-23.6-6-23.6c-7,0-14.6,33.8-12.5,51.1c2.2,17.2,61.9,106.7,64.1,106.7
			c2.2,0,31.5-19.4,43.4-46.2c3.6-8.1,7.7-19.1,11.8-30.5c18.3,8.2,36.2,17.7,53.3,28.6C856,268.6,861.4,224.6,855.8,218.6z"/>
		<path class="st3" d="M700.1,178.1c0,0-17.6,8.7-19,10.1c-1.4,1.4-0.7,4.6-0.7,4.6S701.9,182.6,700.1,178.1z"/>
		<path class="st21" d="M682.8,192.8c0,0,15.8-10.8,19.1-8.9c3.3,1.9-19.1,12-19.1,12V192.8z"/>
		<path class="st3" d="M684.4,197c0,0,16-5.7,15.9-8c-0.1-2.3-18.7,5.6-18.7,5.6L684.4,197z"/>
		<path class="st3" d="M687.2,204.8c0,0,5.5-8.9,8.2-8.9c2.7,0-7,18.3-7,18.3L687.2,204.8z"/>
		<path class="st8" d="M842.9,297.3c-6.1-13.4-4.5-31.9-12.8-38.4c-12.3-9.5-32.6-10.2-50.6-10.2c-0.5,0.5-10.4,12.7-10.7,13.1
			c-6.1,6.5,0,35.1,0,44.3c0,9.2-24.3,56.4-24.3,56.4s-69.5,127.5-91.2,127.5c0,0,90.8,4.2,139.9,56.4c0,0,36.7-93.5,19.1-162.6
			c0,0-2.2-43.9,17.4-64.7C834.2,314,838.8,306.3,842.9,297.3z"/>
		<path class="st22" d="M842.9,297.3c-6.1-13.4-4.5-31.9-12.8-38.4c-0.3-0.2-0.5-0.4-0.8-0.6c-12.8,16.9-37.8,52.2-43.4,77.1
			c-7.6,33.7,35.6,58.1,3.9,89.8c-31.7,31.7-1.4,69.1-35.5,86.3c-2.1,1-3.6,2.2-4.7,3.5c15.7,7.8,31,18,43.5,31.3
			c0,0,36.7-93.5,19.1-162.6c0,0-2.2-43.9,17.4-64.7C834.2,314,838.8,306.3,842.9,297.3z"/>
		<path class="st20" d="M820.5,690.9c0,0,3.2,6.2,6.3,6.2c3.1,0,11.1-33,15.7-33c4.5,0,5.6,9.8,4.4,12.8c-1.2,3-3.1,27.5-3.1,27.5
			H840c0,0,1.8-20.1,0.4-20.1l-4,20.1h-23C813.4,704.2,809.6,697.2,820.5,690.9z"/>
		<g>
			<path class="st23" d="M723,187.1l-17.1,17.5l-13.6-14.1l17.1-17.5c3.6-3.7,9.5-3.5,13.3,0.4l0,0
				C726.4,177.3,726.6,183.4,723,187.1z"/>
			<g>
				<polygon class="st24" points="705.8,196.4 645.7,258 640,252 700,190.4 				"/>
			</g>
			<polygon class="st24" points="712.6,200.9 696.5,217.5 679.5,199.9 695.7,183.3 			"/>
			<path class="st5" d="M701.9,185.6c0.2,0.4,0.1,1-0.3,1.2c-0.4,0.2-0.9,0.1-1.2-0.4c-0.2-0.4-0.1-1,0.3-1.2
				C701.1,185,701.7,185.1,701.9,185.6z"/>
			<path class="st5" d="M705.9,186.6c0.2,0.3,0.1,0.7-0.2,0.9c-0.3,0.2-0.7,0.1-0.9-0.3c-0.2-0.3-0.1-0.7,0.2-0.9
				C705.3,186.2,705.7,186.3,705.9,186.6z"/>
			<path class="st5" d="M703.7,183.1c0.2,0.4,0.2,0.8-0.1,0.9c-0.3,0.1-0.6,0-0.8-0.4c-0.2-0.4-0.2-0.8,0.1-0.9
				C703.1,182.6,703.5,182.8,703.7,183.1z"/>
			<path class="st5" d="M706.5,183.1c0.2,0.3,0.1,0.6,0,0.7c-0.2,0.1-0.5,0-0.6-0.3c-0.2-0.3-0.1-0.6,0-0.7
				C706,182.6,706.3,182.8,706.5,183.1z"/>
			<path class="st5" d="M706.4,180.2c0.1,0.2,0,0.4-0.1,0.5c-0.2,0.1-0.4,0-0.4-0.1c-0.1-0.2,0-0.4,0.1-0.5
				C706.2,179.9,706.4,180,706.4,180.2z"/>
			<path class="st5" d="M707.9,182c0.1,0.1,0,0.2-0.1,0.3c-0.1,0.1-0.2,0-0.3-0.1c-0.1-0.1,0-0.2,0.1-0.3
				C707.8,181.9,707.9,181.9,707.9,182z"/>
		</g>
		<path class="st25" d="M814,116.7c0,0-6.4-3-16.9,9.9c-10.5,12.9,3,16,4.2,35.3c1.3,19.4,4.3,28,21.2,37.6
			c16.9,9.6,22.7-1.8,40.7,1.3c17.9,3-2.4,11.4,8.5,21.5c10.9,10.1,26.8,13.4,28.1,14.5c1.2,1.1-21.3-13.1-21.8-19.7
			c-0.4-6.6,9.6-6.1,9-15.2c-0.6-9.1-11.7-11.2-11.7-11.2s8.5-4.6,18,1.4c9.5,6,5.7,5.8,10.8,17.6c5.1,11.8,13.7,5,23.5,9
			c9.8,4,13.3,21,13.3,21s3.7-21-7.2-31.1c-10.9-10.1-14.4-3.1-18.4-14.7c-4-11.6-0.7-18.2-14.1-25.8c-13.4-7.5-22.7,3.3-23.1-3.1
			c-0.4-6.4,11.8-4.3,11.8-4.3s2-8.3-10.2-12.5c-12.2-4.2-13.1-13.6-13.5-19.2C865.9,123.5,834.8,99.4,814,116.7z"/>
		<path class="st26" d="M803.8,119.9c-2,1.5-4.2,3.7-6.7,6.7c-10.5,12.9,3,16,4.2,35.3c1.3,19.4,4.3,28,21.2,37.6
			c12.1,6.9,18.5,3,27.7,1.4c-22.8-17.3,8.5-31-3.4-51.7C834.8,128.1,816.1,121.7,803.8,119.9z"/>
		<path class="st3" d="M833.8,176.9l-21.3,9.6l-8.3,30.5c0,0-17.2,35.2,24.1,2.9C830,218.6,833.8,176.9,833.8,176.9z"/>
		<path class="st27" d="M833.8,176.9L833.8,176.9l-21.3,9.6l-2,7.3c7.4-0.9,17.4-6.9,22.8-12.4C833.9,176.3,833.8,176.9,833.8,176.9
			z"/>
		<path class="st10" d="M811.4,120.6c-6.8,3.4-13.7,9.6-18.5,24.9c-4.8,15.3-3.5,31.7,0.7,40.9c4.2,9.1,30.5-0.1,40.2-9.5
			C843.5,167.5,840.1,106.2,811.4,120.6z"/>
		<path class="st10" d="M836.8,155.8c0,0,2.5-5.9,6.1-3.9c3.6,2-1.2,15.6-5,15.4C834.2,167.1,836.8,155.8,836.8,155.8z"/>
		<g>
			<path class="st16" d="M799.1,170.4c0.1-0.6,0.6-2,2.1-1.4c2,0.9,1.7,0.9,3.7,1.3c2,0.4,3.6,0.2,4.1,2.6c0.6,2.3-1.4,6.4-2.9,7.6
				c-1.6,1.1-3.7,1.4-6.2,0.2c-2.4-1.2-3.3-2.7-3.6-4.7C796.2,174,798.6,173.7,799.1,170.4z"/>
			<path d="M799.1,170.4c0.1-0.6,0.6-2,2.1-1.4c2,0.9,1.7,0.9,3.7,1.3c2,0.4,3.6,0.2,4.1,2.6c0.6,2.3-1.4,6.4-2.9,7.6
				c-1.6,1.1-3.7,1.4-6.2,0.2c-2.4-1.2-3.3-2.7-3.6-4.7C796.2,174,798.6,173.7,799.1,170.4z"/>
			<path class="st2" d="M799.1,170.4c0.1-0.6,0.6-2,2.1-1.4c2,0.9,1.7,0.9,3.7,1.3c1.5,0.3,2.7,0.3,3.5,1.2c0,0,0,0,0,0c0,0,0,0,0,0
				c-0.2,0.6-0.5,1.2-0.8,1.4c-0.5,0.2-6.1-0.7-8.7-2.2C799.1,170.6,799.1,170.5,799.1,170.4z"/>
			<path class="st17" d="M805.9,176.7c0.8,0.7,1.3,1.5,1.5,2.3c-0.4,0.6-0.8,1.1-1.3,1.5c-1.6,1.1-3.7,1.4-6.2,0.2
				c-2-1-2.9-2.2-3.4-3.6c0.3-1,0.6-1.9,0.8-1.9C798.1,174.9,803.8,175,805.9,176.7z"/>
			<path class="st2" d="M800,180.7c-2.4-1.2-3.3-2.7-3.6-4.7c-0.1-0.4,0-0.8,0.2-1.1c0.5-0.1,1-0.1,1,0c0.1,0.4,1.1,4.3,5.3,5
				c2.8,0.5,4-0.4,4.6-1c-0.4,0.7-0.9,1.2-1.3,1.5C804.6,181.6,802.5,181.9,800,180.7z"/>
		</g>
		<path d="M828.3,147.4c-0.1-0.2-4.2-1.6-6.7-1.1c-2.6,0.5-5.4,0.7-5.9,1.2c-0.5,0.5,2.1,1.3,4.8,0.5
			C823.1,147.1,828.3,147.4,828.3,147.4z"/>
		<path d="M798.1,139.1c0.2-0.1,4.4,0.7,6.4,2.5c2,1.8,4.4,3.4,4.6,4.1c0.2,0.7-2.4,0.1-4.4-2.1
			C802.8,141.5,798.1,139.1,798.1,139.1z"/>
		<path d="M809.9,150.8c-1.5,3-3.9,6.4-5.9,8.9c0.9,1.2,1.7,2.3,2.5,3.6c-1.4-1.1-2.6-2.4-3.8-3.6
			C802.7,159.8,806.2,154.5,809.9,150.8z"/>
		<g>
			<path d="M826.3,153.3c0.8-0.3,1.2-1.2,1.2-1.2l-13.6,0l9.9,6.4l-3.9-4.6C819.8,153.9,823.7,154.2,826.3,153.3z"/>
		</g>
		<g>
			<path d="M795.1,142.9c-0.5-0.7-0.3-1.7-0.3-1.7l11.1,8.3l-11.5-0.8l5.7-1.4C800.1,147.3,796.8,145.1,795.1,142.9z"/>
		</g>
		<path class="st3" d="M818.4,165.8c3.1,1.3,6.2,0.9,6.8-0.7c0.6-1.7-1.5-4-4.6-5.3c-3.1-1.3-6.2-0.9-6.8,0.7
			C813.1,162.1,815.2,164.5,818.4,165.8z"/>
		<path class="st27" d="M837.7,156.7c0,0,4.5-4.9,4.4-2.3c-0.1,2.6-1.2,10.3-3.9,10.1S837.7,156.7,837.7,156.7z"/>
		<path class="st28" d="M815.6,119c0,0-7.3,14.4,3.8,17.7c11.1,3.3,18.2,6.2,24.7,26.1c6.5,19.9,6,23.9,29.3,23.9
			c23.3,0,25.9,8.7,27.8,14.5c1.9,5.9,9.3-14.4-6.9-25.3c-16.2-10.8-34.2,0.6-34.2-20.6c0-21.2,7.7-15.8-10.4-25
			C831.7,121,830.2,109,815.6,119z"/>
		<path class="st10" d="M852.6,217c-10.4,0-50,49.9-65.6,58.4c-15.6,8.5-77-31.2-81.3-44c-0.5-1.5-1-3.1-1.6-4.8
			c0.5-8.9,3-27.1,0.4-27.9c-3.4-1-3.4,13.5-5.1,9.1c-1.7-4.4,2.2-26.8,0-26.8c-2.2,0-3.4,15.7-3.4,15.7l-1.7,8.7
			c-0.1-0.1-0.1-0.1-0.2-0.2l-0.2-9.1c0,0,4.3-15.4,0.7-15.4c-3.6,0-4.7,23.7-5.8,22.5c-1.1-1.2-0.5-21.3-2.5-19.1
			c-1.7,1.8-0.5,23.2-0.1,29.9c-0.2,11.1,6.2,27.9,10,30.3c5,3.2,88.2,79,108.6,71.3c20.4-7.7,49.2-44.4,49.2-44.4
			C866.2,258.4,863.1,217,852.6,217z"/>
	</g>
	<g>
		<path d="M1125.9,196.9c-0.5,0-1-0.1-1.5-0.3l-68.3-32.5c-1.9-0.9-2.8-3.4-2-5.6c0.8-2.2,3.1-3.2,5-2.2l68.3,32.5
			c1.9,0.9,2.8,3.4,2,5.6C1128.8,195.9,1127.4,196.9,1125.9,196.9z"/>
	</g>
	<path class="st10" d="M1073.6,155c-3.5,3.6,0.2,18.9,1.4,20.3c1.2,1.3,2.9-11.1,2.9-11.1s-0.4,15,2.4,15.9
		c2.8,0.9,2.3-12.6,2.3-12.6s1.3,10.8,4.1,12.7c2.8,1.8,0-11.8,0-11.8s2.9,10.8,5,10.8c2,0,0.4-10.1,0.4-13.3c0-3.2-4-3.8-5.6-5.6
		c-1.6-1.8-5.9-4.3-9.4-5C1074.3,154.7,1074.2,154.3,1073.6,155z"/>
	<g>
		<path class="st29" d="M1056.8,159.7c-3.6,7-11.1,10.2-16.8,7.3c-5.7-2.9-7.4-10.9-3.8-17.9c3.6-7,11.1-10.2,16.8-7.3
			C1058.6,144.7,1060.3,152.8,1056.8,159.7z"/>
		<path class="st30" d="M1058.6,152.1c1.1,10.4-10.2,20.2-18.7,14.9C1049.1,170.3,1057.7,161.7,1058.6,152.1z"/>
		<g>
			<path class="st30" d="M1039.5,148.7c-0.1,0-0.2,0-0.2-0.1c-0.1-0.1,0-0.3,0.1-0.4c0.1,0,6.8-4.3,13.2-1.9
				c0.1,0.1,0.2,0.2,0.2,0.4c-0.1,0.1-0.2,0.2-0.4,0.2c-6.2-2.3-12.7,1.8-12.7,1.9C1039.6,148.7,1039.6,148.7,1039.5,148.7z"/>
		</g>
		<g>
			<path class="st30" d="M1039.9,151.8c-0.1,0-0.2,0-0.2-0.1c-0.1-0.1,0-0.3,0.1-0.4c0.1,0,6.8-4.3,13.2-1.9
				c0.1,0.1,0.2,0.2,0.2,0.4c-0.1,0.1-0.2,0.2-0.4,0.2c-6.2-2.3-12.7,1.8-12.7,1.9C1040,151.8,1040,151.8,1039.9,151.8z"/>
		</g>
		<g>
			<path class="st30" d="M1040.8,155.5c-0.1,0-0.2,0-0.2-0.1c-0.1-0.1,0-0.3,0.1-0.4c0.1,0,6.8-4.3,13.2-1.9
				c0.1,0.1,0.2,0.2,0.2,0.4c-0.1,0.1-0.2,0.2-0.4,0.2c-6.2-2.3-12.7,1.8-12.7,1.9C1040.9,155.5,1040.9,155.5,1040.8,155.5z"/>
		</g>
		<g>
			<path class="st30" d="M1045.4,158.1c-0.1,0-0.2,0-0.2-0.1c-0.1-0.1-5.1-6.2-3.4-12.9c0-0.1,0.2-0.2,0.3-0.2
				c0.1,0,0.2,0.2,0.2,0.3c-1.6,6.4,3.3,12.4,3.3,12.4c0.1,0.1,0.1,0.3,0,0.4C1045.5,158.1,1045.5,158.1,1045.4,158.1z"/>
		</g>
		<g>
			<path class="st30" d="M1048.5,157.3c-0.1,0-0.2,0-0.2-0.1c0-0.1-5.1-6.2-3.4-12.9c0-0.1,0.2-0.2,0.3-0.2c0.1,0,0.2,0.2,0.2,0.3
				c-1.6,6.4,3.3,12.4,3.3,12.5c0.1,0.1,0.1,0.3,0,0.4C1048.6,157.3,1048.5,157.3,1048.5,157.3z"/>
		</g>
		<g>
			<path class="st30" d="M1052,156c-0.1,0-0.2,0-0.2-0.1c-0.1-0.1-5.1-6.2-3.4-12.9c0-0.1,0.2-0.2,0.3-0.2c0.1,0,0.2,0.2,0.2,0.3
				c-1.6,6.4,3.3,12.4,3.3,12.5c0.1,0.1,0.1,0.3,0,0.4C1052.1,156,1052.1,156,1052,156z"/>
		</g>
	</g>
	<path class="st10" d="M1088.1,164.6c-0.9,0-12.9-0.7-12.9-0.7s-3.1,4.4-3.1,7.8c0,3.3-1.1,15.5-1.1,18.9c0,3.3-17.2,22.2-17.2,22.2
		l15.4,8.9c0,0,32.9-43.8,32.9-47.8c0-3.9-4.9-5.7-6.5-6.9C1094,165.8,1088.1,164.6,1088.1,164.6z"/>
	<path class="st7" d="M932.7,215.8c0,0-4.8,34.2,38.7,50.6c43.4,16.4,61.5,7.7,61.5,7.7s53.4-63.6,55.3-65.5l-26-9l-48,33.9
		l-67.4-33.2c-3.7-1.8-8.3,0-9.7,3.9L932.7,215.8z"/>
</g>
<g>
	<g>
		<path class="st3" d="M325.9,256.3c15.5-5.8,53.7-22.7,77.1-56.1c34.2-48.6,36.6-69.4,36.6-69.4s-2.9-8-2.9-12.6
			c0-4.6-2.3-10.4,0.6-10.4c2.8,0,3.2,5.7,3.2,7.7c0,0.7,0.4,1.1,1,1.2c1.4,0.5,2.9-0.4,3.3-1.8c0.4-1.5,0.8-4,0.8-8.3
			c0-9.1,0.7-17.3,2.5-15.5c1.7,1.7,1,17.7,1,20.9c0,3.3,2.9-13.1,4.5-19.8c1.5-6.7,4-3.1,2.9,0.5c-1.1,3.7-4,20-2.9,20
			c1.2,0,5.3-18.5,8.2-18.5c2.9,0,0.3,3.1-0.5,6c-0.7,2.9-5.5,11.7-3.6,13.6c0,0,8.1-11,8.4-9.3c0.1,0.9-6.2,14-9.4,19.3
			c-7.5,12.4-31.9,88.2-46.6,102.9c-14.4,14.3-41,50.3-43.8,66.7C350,284,333.9,272.5,325.9,256.3z"/>
		<path class="st31" d="M434.2,134c0,0-23.2,55.7-41.2,67.3c-18,11.6-49.3,47.2-70.2,48c0,0,35.6,46.6,43.4,44
			c7.7-2.6,53.3-69,62.3-78c9-9,23.8-73.7,23.8-73.7L434.2,134z"/>
		<path class="st32" d="M246.5,662.2c0,0-13.3,13.6-14.8,22.6s-2,21.8-2,21.8h39.2c0,0-4.7-15.1-4.7-25.1
			C264.1,671.5,246.5,662.2,246.5,662.2z"/>
		<path class="st32" d="M475.7,673.8c0,0-4.4,13.1-4.4,17.1c0,4.1,0,13.9,0,13.9l65.3,1.5c0,0,0.9-10.7-5.8-13.9
			c-6.7-3.2-25.8-7-32.2-15.7C492.3,668,475.7,673.8,475.7,673.8z"/>
		<polygon class="st33" points="394.8,403.9 495.2,482.9 498.7,676.7 472,676.7 458,535.1 326,436 		"/>
		<path class="st14" d="M379.1,421.9c0,0,8.1,36,8.1,43.5c0,7.5-25.8,126.8-33.7,134.7c-7.8,7.8-84.7,83-84.7,83l-33.7-11.6
			c0,0,72.6-87.1,76-99.8c3.5-12.8,9.9-121.3,9.9-121.3l55.1-28.4H379.1z"/>
		<path class="st34" d="M229.6,706.6c14.6,0,29.2,0,43.8,0c2.4,0-0.7-13.8-2.2-15.1c-3.2-2.6-30.4-9.5-39.1,4.9
			C231.6,697.3,228.6,706.6,229.6,706.6z"/>
		<path class="st35" d="M263.6,268.7c0,0-12.2,25.4-12.2,32.5c0,7,70.2,139.9,62.7,161.4c0,0,75.5-26.1,92.3-51.1
			c0,0-39.5-153.8-70.2-161.9C305.4,241.4,271.1,261.2,263.6,268.7z"/>
		<path class="st36" d="M406.4,411.5c-9.7-32.4-43.9-153.3-70.2-161.9C365.7,257,399.2,379.8,406.4,411.5z"/>
		<path class="st37" d="M274.6,273.9c0,0,10.2,3.8,20.9,0c10.7-3.8,15.6-10.3,15.7-18c0-7.7-8.7-14.8-18.3-14.8
			c-9.6,0-25.8,9.9-25.8,18.6C267.1,268.4,274.6,273.9,274.6,273.9z"/>
		<path class="st31" d="M317.1,271.1c0,0,6.2-21-13.2-31c-15.1-7.8-53,10.1-49.5,29c2.2,12.2,21.6,13.2,34.6,15.9
			c16.5,3.4,12-7.2,9.3-8.8c-7.8-4.4-24.3-7.9-24.3-14.9c0-12.4,17.9-20.5,22.6-15.8C301.2,250.2,312.2,275.9,317.1,271.1z"/>
		<g>
			<path class="st10" d="M301.9,250.1c-5.1-8-6.8-14.9-6.8-14.9l-25.2-2.8c0,0,2,5.8,4.9,13.7c3.4,9,7.9,20.7,12.2,29.8
				c14.2,1.8,21.5-2.3,25.2-6.3C311.9,268.5,304.9,254.9,301.9,250.1z"/>
			<path class="st3" d="M275.7,248.3c8.6,1.1,19.2,1.1,25.7,0.9c-4.7-7.6-6.3-14-6.3-14l-25.2-2.8c0,0,2,5.8,4.9,13.7
				C275.1,246.8,275.4,247.6,275.7,248.3z"/>
			<path class="st10" d="M270.5,181.4c0,0,2.8-3.2,8.1,0c5.3,3.3,16.1,17.8,21,33.8c4.9,16,5.8,22.5-0.2,25.6
				c-6,3.1-18.5,6-36.7-9.7C244.4,215.5,235.6,191.3,270.5,181.4z"/>
			<path class="st38" d="M277.6,193c1.4-0.7,14.8-5.2,10.2-19.5c-4.6-14.3-25.2-12.8-35.9,10.8c-0.7,1.5-11.4-4.6-14.7,6.4
				c-3.2,11,3.8,13.2,4.1,18.2s-4.7,15,10.4,24.9c9.6,6.2,19.1,3.5,19.1,3.5s-3.7-4-6.9-10.2c-3.1-6.2,4-3.6,4-3.6s-2.4,0.6-5.5-5.5
				c-3.3-6.6-8.6-10.6-9.4-12.3c-0.9-1.7-3.6-5.7,4.4-6.2C265.7,199,277.6,193,277.6,193z"/>
			<path class="st10" d="M271.4,226.1c0,0-4.3-9.5-12.1-7.9c-7.8,1.6-2.7,9.3,3.1,11.4C268.2,231.7,271.4,226.1,271.4,226.1z"/>
			<path class="st3" d="M260.7,220.9c2.4-2.3,5.8,1.3,6.1,1.7c1.1,1.2,1.6,2.5-0.6,4.2C264.1,228.5,258.3,223.2,260.7,220.9z"/>
		</g>
		<path class="st31" d="M254.3,269.1c2.2,12.2,21.6,13.2,34.6,15.9c16.5,3.4,12-7.2,9.3-8.8c-6.9-4-20.8-7.1-23.7-12.7
			c-6.6-0.1-12.4-2.2-18.1-4.9C254.5,262,253.6,265.5,254.3,269.1z"/>
		<path class="st36" d="M292.2,325c0,0,50.4-20.5,59.3-33.4c0,0,13.9,39.8,13.9,41.5c0,0-35.7,23.7-52,27.8L292.2,325z"/>
		<g>
			<path class="st31" d="M336.1,425.4c-0.2,0-0.3,0-0.5-0.1c-0.6-0.3-0.9-0.9-0.6-1.5c8.1-18.7-1.6-36.2-1.7-36.4
				c-0.3-0.6-0.1-1.3,0.4-1.6c0.6-0.3,1.3-0.1,1.6,0.4c0.4,0.8,10.3,18.7,1.8,38.5C337,425.2,336.6,425.4,336.1,425.4z"/>
		</g>
		<g>
			<path class="st31" d="M385.8,406.7c-14.1,0-21.2-30.8-21.4-32.1c-0.1-0.6,0.3-1.2,0.9-1.4c0.7-0.1,1.2,0.3,1.4,0.9
				c0.1,0.3,6.9,30.3,19.2,30.3c0.6,0,1.2,0.5,1.2,1.2C386.9,406.2,386.4,406.7,385.8,406.7z"/>
		</g>
		<path class="st35" d="M273.9,243.6c-7.3,4.4-16.2,11.1-18.2,19.5c-4.6,16.7,20.7,18.2,33.2,21.9c-11.9-1.5-29.8-2.4-34.7-12.6
			C248.7,260.4,261.4,248.7,273.9,243.6z"/>
		<g>
			<path class="st36" d="M289.9,314.6c-9.1-6.2,10.3-10.4,10.3-23.6c0-3.7-0.7-11.2-3.8-9.2c-1.3,0.8-2.5-1.1-1.3-1.9
				c0.7-0.5,2.3-1.1,3.9-0.3c2.3,1.2,3.5,5,3.5,11.4c0,7.7-5.2,12.4-9.1,15.8c-3.7,3.3-4.7,4.2-2.3,5.9
				C292.4,313.6,291.1,315.5,289.9,314.6z"/>
		</g>
		<g>
			<path class="st36" d="M332.4,298.7c-9.1,0-13.6-6.2-13.6-15.8c0-12-2-13.2-2.2-13.2c-0.6-0.2-1.3,1.3-2.3,0.3
				c-1.3-1.3,1.3-3.2,3.2-2.5c1.6,0.6,3.7,2.9,3.7,15.4c0,11.1,6.2,15.1,15.6,13c1.4-0.4,2.1,1.8,0.6,2.2
				C337.1,298.1,335.1,298.7,332.4,298.7z"/>
		</g>
		<path class="st10" d="M114.7,265.9c-8.3-5.3-14.4-10.1-17-13.3c-1.7-2.1-5-23.7-11.2-21.4c-1,0.4-1.5,1.4-1,2.8
			c0.3,0.8,0.9,1.4,1.9,3.5c1.6,3.3,1.6,6.1,0.8,6c-2.8-0.3-18.2-22.4-21.5-20.9c-2.7,1.3,6,10.2,8.3,12.7c4.1,4.4,5.8,8.2,4.7,7
			c-1.1-1.2-9.2-9.9-12.6-12.4c-3.4-2.5-8.2-7.4-10.4-5.4c-2.2,2,2.6,4,2.6,4c5.2,3.9,15.3,15,18.7,18.8c-6.8-2.7-22-20.3-22.2-15.8
			c-0.1,2.9,14.8,16.7,18.5,19.2c4.7,3.1-1.2,1.1-4.2,0c-2.8-1-10.1-6.7-9.1-2.4c1.1,4.1,25.3,13.8,33.4,19.2l0,0
			c1.6,1.1,5.3,4.2,10.4,8.5C107.8,272.4,111.1,269.1,114.7,265.9z"/>
		<path class="st35" d="M258.8,279.3c-15.3,4.9-23.2,13.4-45.6,15c-29.7,2.1-74.8-20.9-98.5-35.9c-3.6,3.2-13.1,17.4-15.9,20.9
			c17.1,14.3,56.2,38.5,78.3,46.6c21.2,7.8,64.2,14.8,91.3,13.3L258.8,279.3z"/>
	</g>
	<g>
		<polygon class="st10" points="1521.5,622.5 1519.2,647.5 1502.8,646.8 1502.8,620.2 		"/>
		<polygon class="st10" points="1641.9,634.5 1644.5,662.5 1664,662.5 1664,631.4 		"/>
		<path class="st39" d="M1534.2,125.3c0,2.7-31.7,12.8-28.1,27.3c3.6,14.5,25.3,18.9,17.8,25.4c-7.4,6.5-33.2-19.7-45.1-9.3
			c-11.8,10.4,0.9,16.8,3.1,26c2.2,9.2-11.6,32-29,16.7c0,0,14.3,13.4,26.3,13.4s10.1-30.5,24.1-18.1c14.1,12.3-9.4,26.5,24.1,32.8
			c33.5,6.4,58.4-7.2,66.9-14.7c8.5-7.5-2.9-8.3,12,1.5c34.7,22.7,34.7-12.6,34.7-12.6s-18.9,6.3-18.9-7.7c0-14-14.3,14.7-19.7-11.3
			c-5.4-26,8.5-35.3-3.1-49.5c-11.6-14.2-21-7.5-28.5-17.3C1563.2,118.1,1534.2,119.2,1534.2,125.3z"/>
		<path class="st40" d="M1493.4,384.8c0,0,47,5.2,78.2-17c31.2-22.3,60.8-10.8,60.8-10.8l-7.8-15.9l-25.2-21.7c0,0-53.3-1.6-54.8,0
			C1543,320.9,1493.4,384.8,1493.4,384.8z"/>
		<path class="st33" d="M1518.4,362.8c-2.7,0-8.7,80.2-13.4,92.3c-4.7,12-6.8,181.8-6.8,181.8h29.1c0,0,13.5-155.4,17.8-159.7
			c4.3-4.3,29.4-103.7,29.4-103.7l3.3-33.9L1518.4,362.8z"/>
		<path class="st14" d="M1546.5,345.2c0,0,73.9,178.1,77.9,213.2c4,35.1,10.6,88.1,10.6,88.1l37.3,0.8c0,0-6.3-119-24.2-147.4
			c-17.9-28.4-15.9-136.9-28.6-159.1c-12.7-22.2-36.1-21.5-36.1-21.5L1546.5,345.2z"/>
		<path class="st41" d="M1606.9,491.9c-16.7-45.8-38-98-60.4-146.8c93.3,253.3,66.5,164.3,88.5,301.3
			C1627.1,547.4,1626.9,548.5,1606.9,491.9z"/>
		<path class="st10" d="M1541.3,57.6c8-5.7,14.8-9.6,18.8-10.7c2.6-0.8,23.8,4.3,24-2.2c0-1-0.8-2-2.2-2c-0.8,0-1.7,0.3-3.9,0.5
			c-3.6,0.2-6.3-0.8-5.9-1.6c1.4-2.5,27.7-8.4,27.5-12c-0.2-3-11.7,1.7-14.9,2.9c-5.7,2.1-9.8,2.2-8.3,1.7c1.5-0.6,12.6-4.7,16.2-7
			c3.6-2.2,10-4.8,8.9-7.5c-1-2.8-4.7,0.9-4.7,0.9c-5.5,3.4-19.7,8.5-24.5,10.2c5.1-5.2,27.1-12.7,23-14.5
			c-2.6-1.2-21.1,7.4-24.7,9.9c-4.7,3.2-0.6-1.5,1.6-3.9c2-2.2,10-6.8,5.7-7.5c-4.2-0.5-22.3,18.2-30.4,23.7h0
			c-1.6,1.1-5.9,3.3-11.8,6.4C1537.9,48.8,1539.7,53.1,1541.3,57.6z"/>
		<path class="st10" d="M1750,276.6c8-5.7,14.8-9.6,18.8-10.7c2.6-0.8,23.8,4.3,24-2.2c0-1-0.8-2-2.2-2c-0.8,0-1.7,0.3-3.9,0.5
			c-3.6,0.2-6.3-0.8-5.9-1.6c1.4-2.5,27.7-8.4,27.5-12c-0.2-3-11.7,1.7-14.9,2.9c-5.7,2.1-9.8,2.2-8.3,1.7c1.5-0.6,12.6-4.7,16.2-7
			c3.6-2.2,10-4.8,8.9-7.5c-1-2.8-4.7,0.9-4.7,0.9c-5.5,3.4-19.7,8.5-24.5,10.2c5.1-5.2,27.1-12.7,23-14.5
			c-2.6-1.2-21.1,7.4-24.7,9.9c-4.7,3.2-0.6-1.5,1.6-3.9c2-2.2,10-6.8,5.7-7.5c-4.2-0.5-22.3,18.2-30.4,23.7v0
			c-1.6,1.1-5.9,3.3-11.8,6.4C1746.5,267.8,1748.3,272.1,1750,276.6z"/>
		<path class="st42" d="M1500.8,196.3c0,0-15.6,25.6-8.5,46.7c7.1,21.1-6.4,120.4-1.9,138.6c4.5,18.1,69.7-40.7,96.9-51.9
			c27.2-11.2,45,27.2,45,27.2s-10.7-27.2-23.2-58c-12.5-30.8-3.4-69-12.9-78.5C1586.7,210.8,1512.8,184.3,1500.8,196.3z"/>
		<g>
			<path class="st43" d="M1527.2,327.6c-0.2,0-0.3,0-0.5-0.1c-0.6-0.3-0.9-0.9-0.6-1.5c8.1-18.7-1.6-36.2-1.7-36.4
				c-0.3-0.6-0.1-1.3,0.4-1.6c0.6-0.3,1.3-0.1,1.6,0.4c0.4,0.8,10.3,18.7,1.8,38.5C1528.1,327.4,1527.6,327.6,1527.2,327.6z"/>
		</g>
		<g>
			<path class="st43" d="M1576.8,308.9c-14.1,0-21.2-30.8-21.4-32.1c-0.1-0.6,0.3-1.2,0.9-1.4c0.7-0.1,1.2,0.3,1.4,0.9
				c0.1,0.3,6.9,30.3,19.2,30.3c0.6,0,1.2,0.5,1.2,1.2C1578,308.4,1577.4,308.9,1576.8,308.9z"/>
		</g>
		<path class="st40" d="M1513.3,169.2c0,0-22.3,1.4-19.6,13.3c2.7,11.9,54,22.1,62,37.8c8,15.6,12.9,5.3,12.9-1.8
			c0-7.1,8.2-13.9-2.5-31.1C1555.3,170.3,1513.3,169.2,1513.3,169.2z"/>
		<path class="st42" d="M1494.3,175c-11.8,13.9,22.1,22.6,43.9,32c-19.9-11-51.6-20.2-41.9-30.3c3.3-3.9,11.9-5.7,17-6.2
			c9.4,0.4,18.9,1.6,28.2,3.7c4.6,1.1,9.1,2.6,13.4,4.6c4.3,2,8.3,4.7,11.2,8.6C1556,169.6,1504,161.6,1494.3,175z"/>
		<path class="st43" d="M1596.6,221.1L1596.6,221.1c0,0,47.8,17,65.2,21.3c17.4,4.4,71.7,1.1,78.5,6.2c6.7,5.2,27.3-9.8,27.3-9.8
			l2.8,30.1c0,0-20,5.5-25.7,12.9c-5.7,7.4-137.3,5.5-138.6,7.3c-1,1.3-10.6-31.1-11.7-48.4C1593.8,234.1,1594.6,227.4,1596.6,221.1
			z"/>
		<path class="st44" d="M1506.5,196.3c0,0-2.9-10.7-11-26.7c-20.9-41.5,34.1-88,46.3-105c12.1-17,13.6-14.7,13.6-14.7l-13.6-12.3
			c0,0-9.5,6.4-16.3,7.4c-35.3,4.9-89.8,72.2-89.8,87.4c0,19.6,54.9,129.2,57.8,136.2C1496.3,275.7,1506.5,196.3,1506.5,196.3z"/>
		<path class="st10" d="M1530.4,175.5l7.7,31.5c0,0,19,29.6,27.9,26.6c8.9-3-7.6-24.8-7.6-27.7c0-2.8-8.9-26.5-8.9-26.5
			L1530.4,175.5z"/>
		<path class="st3" d="M1549.6,179.4l-19.1-3.8l3.5,14.5c4.3,4.6,9.8,7.9,14.2,6.3c2.1-0.7,4.2-2,6.2-3.7
			C1552,186,1549.6,179.4,1549.6,179.4z"/>
		<path class="st10" d="M1541.8,128.6c0,0-13,9.7-13,18.9c0,9.2-1.6,14.2-1.6,20.9c0,6.7,12.4,25.6,21,22.8
			c8.6-2.8,16.9-15,16.9-27.4C1565.1,151.3,1560,124.6,1541.8,128.6z"/>
		<g>
			<path class="st2" d="M1539.2,173.2c5,2.3,12.4,2.3,12.4,2.3s-0.5,1.1-1.4,2.2c-2.2-0.1-6.4-0.5-9.9-1.8
				C1539.6,174.4,1539.2,173.2,1539.2,173.2z"/>
			<path class="st45" d="M1540.3,175.9c3.5,1.3,7.7,1.7,9.9,1.8C1546.7,182.1,1542.9,181.1,1540.3,175.9z"/>
		</g>
		<g>
			<path class="st12" d="M1548.7,167.8c-0.2-2.2-0.3-4.4-0.3-6.6c0.5,2.8,0.6,4.8,0.7,6.9c-1.1,0.3-2.5,1-4.2,0.3
				C1546.2,168.6,1547.5,168.3,1548.7,167.8z"/>
		</g>
		<path class="st12" d="M1542.4,157.2c-0.5-1.6-1.8-3-3.5-3.5c-3.1-0.8-5,3.8-7.1,3.8c1.5,0.8,4-1.9,5.7-2.6
			c0.9-0.4,1.7-0.1,2.6,0.3C1540.9,155.6,1541.7,156.4,1542.4,157.2z"/>
		<path class="st12" d="M1536.8,155.8c0,1,0.7,1.8,1.5,1.8c0.8,0,1.5-0.8,1.5-1.8c0-1-0.7-1.8-1.5-1.8
			C1537.4,154,1536.8,154.8,1536.8,155.8z"/>
		<path class="st12" d="M1552.5,157.5c0.5-1.5,1.9-3,3.7-3.4c3.1-0.7,4.8,4,7,4.1c-1.6,0.7-3.9-2.1-5.5-2.9
			c-0.9-0.4-1.7-0.2-2.6,0.2C1554,156,1553.2,156.7,1552.5,157.5z"/>
		<path class="st12" d="M1558.2,156.3c0,1-0.8,1.7-1.6,1.7c-0.8,0-1.5-0.9-1.4-1.8c0-1,0.8-1.7,1.6-1.7
			C1557.6,154.5,1558.2,155.4,1558.2,156.3z"/>
		<path class="st12" d="M1543.2,148.3c0.3-0.2-2.4-3.1-5.6-3.4c-3.3-0.3-6.8,3.4-6.8,3.4s4.8-3,6.8-2
			C1539.7,147.3,1541.4,149.6,1543.2,148.3z"/>
		<path class="st12" d="M1550.1,148.8c-0.3-0.2,2.4-3.1,5.6-3.4c3.3-0.3,6.8,3.4,6.8,3.4s-4.8-3-6.8-2
			C1553.6,147.8,1552,150.1,1550.1,148.8z"/>
		<path class="st3" d="M1538.1,162.3c0.1,1.4-1.8,2.6-4.3,2.8c-2.5,0.2-4.7-0.8-4.8-2.1c-0.1-1.4,1.8-2.6,4.3-2.8
			C1535.8,160,1538,161,1538.1,162.3z"/>
		<path class="st3" d="M1563,165.6c-0.3,1.2-2.3,1.7-4.3,1.1c-2-0.6-3.4-2-3.1-3.2c0.3-1.2,2.3-1.7,4.3-1.1
			C1562,163,1563.3,164.5,1563,165.6z"/>
		<path class="st39" d="M1541.7,125.9c0,0,5.4,8.6,13.5,14.6c8,6,10.7,13.4,7.4,20.1c-3.3,6.7-7.8,8.6-7.8,8.6s8.1,3.6,11.4-4.8
			c3.3-8.5,4.9-2.8,4.7,3.1c-0.3,5.9-9.9,25.8-9.9,34.9s31.1,10.9,25.9-5.2c0,0-8.6,12.2-14.5,6.2c-5.9-5.9,17.2-18,14.5-34.2
			c-2.7-16.2-10-13.5-11.4-22.5C1574.1,137.8,1557.3,120.2,1541.7,125.9z"/>
		<path class="st39" d="M1544.5,127.1c-5.2,6.9-12.9,9.1-20.3,2.9c-1.5-1.3-1.7-1.6-3.3-2.7c-9.6-6.4-31.9-9.4-33.7,1.8
			c-2.2,14.7,13.7,17.6,14.8,9c1.6,8.3-15.6,10.9-18.3-2.8c-0.2-0.8-0.5-2.5-0.5-3.3c0-18.1,25.5-18.6,40.3-8.6
			c3.8,2.6,11.1,12.1,19.3,2.6L1544.5,127.1z"/>
		<path class="st46" d="M1666.4,658.2c0,0,0.9,12.3,0.2,22.8c-0.6,10.5,4.5,19-11.4,20.6c-15.9,1.5-32.4-2.8-33.7-9.7
			c-1.2-6.9,15.2-22.3,15.6-29.1c0.4-6.8,5.1-9.4,7.6-7.1C1647.3,658,1666.4,658.2,1666.4,658.2z"/>
		<path class="st47" d="M1665.7,697.2c-2.8,2.4-6.8,2.6-11.1,2.6c-9.2,0-29.1-1.1-33-7.9c-0.3,1.8,0.8,3.8,2.3,5.2
			C1634.7,707.3,1663.9,705.8,1665.7,697.2z"/>
		<path class="st48" d="M1639.4,671.6c-0.3,6.5,10.5,12.4,14.5,6.6c0.1-0.1,5.6-14.4,6.1-18.8c0.3-2.6,2.4-7.1-4.9-8.4
			c-7.2-1.3-12.6,1-12.7,3.3C1642.4,656,1639.9,661.8,1639.4,671.6z"/>
		<path class="st46" d="M1655.8,675.6c0,0,0.5-19.1,3.8-19.7c3.4-0.6,7.4,1.4,7.4,1.4s-1.6,17-5.7,20.1
			C1657.1,680.5,1655.8,675.6,1655.8,675.6z"/>
		<g>
			<path class="st49" d="M1637.7,661.1c0,0.2,0.1,0.5,0.3,0.6c9.1,6.1,22.5,0.9,23,0.6c0.5-0.2,0.7-0.7,0.4-1
				c-0.2-0.4-0.8-0.5-1.3-0.4c-0.1,0.1-12.8,5-21-0.4c-0.4-0.3-1-0.2-1.3,0.1C1637.8,660.8,1637.7,660.9,1637.7,661.1z"/>
		</g>
		<g>
			<path class="st49" d="M1636.7,668.7c0,0.2,0.1,0.5,0.3,0.6c5.6,4,21.6,0.6,22.3,0.4c0.5-0.1,0.8-0.5,0.7-1
				c-0.1-0.4-0.7-0.7-1.2-0.6c-4.3,0.9-16.5,2.8-20.5-0.1c-0.4-0.3-1-0.2-1.3,0.1C1636.8,668.4,1636.7,668.5,1636.7,668.7z"/>
		</g>
		<g>
			<path class="st49" d="M1635.8,674.2c0,0.2,0.1,0.4,0.2,0.6c4.4,4,21.4,1.4,23.3,1.1c0.5-0.1,0.8-0.5,0.7-0.9
				c-0.1-0.4-0.6-0.7-1.1-0.6c-4.9,0.8-18.4,2.2-21.6-0.6c-0.4-0.3-0.9-0.3-1.3-0.1C1635.9,673.8,1635.8,674,1635.8,674.2z"/>
		</g>
		<path class="st50" d="M1659.2,683.4c0,0,3.5,10,1,11.9c-2.4,1.8-32.5,0.3-32.2-4s7.5-12.4,10.2-13
			C1640.9,677.7,1659.2,683.4,1659.2,683.4z"/>
		<g>
			<path class="st48" d="M1493,649.9c-5.2,3.2-9.4-1.9-9.4-2c5.1-7.7,8-14.7,9.2-16.4c1.4-1.9,3.2-4.4,7.9-1.8
				c4.7,2.5,8.7,8,6.9,9.2C1506.4,639.6,1500.7,645.1,1493,649.9z"/>
			<path class="st46" d="M1525.4,665c0,0-12.4,0.1-21.1,0.2c-8.7,0.1-22.5,1.2-26.9,1.2c-4.3,0-20.2-8.9-19.2-11.9
				c1-3,15.3-2.4,22.7-5.9c7.4-3.4,17.1-13.6,20.5-13.4c2.8,0.1,17.1,2.9,19.6,5.2C1523.5,642.7,1527.6,663,1525.4,665z"/>
			<path class="st49" d="M1461.9,652.7C1461.9,652.7,1461.9,652.7,1461.9,652.7c3.4,0.8,9.1,6.8,17.8,8.8c6.7,1.6,34.2-1.6,46.1-3.1
				c0.4,3.3,0.3,6-0.4,6.6c0,0-12.4,0.1-21.1,0.2c-8.7,0.1-22.5,1.2-26.9,1.2c-4.3,0-20.2-8.9-19.2-11.9
				C1458.5,653.7,1459.9,653.2,1461.9,652.7z"/>
			<g>
				<path class="st49" d="M1489.2,653c0.1-0.1,0.1-0.3,0.1-0.4c-0.9-5-7.9-5.2-8.2-5.2c-0.2,0-0.5,0.2-0.6,0.4
					c-0.1,0.2,0.1,0.4,0.3,0.5c0.1,0,6.7,0.2,7.5,4.7c0,0.2,0.3,0.3,0.5,0.2C1489.1,653.2,1489.2,653.1,1489.2,653z"/>
			</g>
			<g>
				<path class="st49" d="M1492.6,649.4c0.1-0.1,0.1-0.3,0.1-0.4c-0.5-3.2-7.7-4.9-8-5c-0.2,0-0.5,0.1-0.6,0.3
					c-0.1,0.2,0,0.5,0.2,0.5c2,0.4,7.1,2.1,7.5,4.4c0,0.2,0.3,0.3,0.5,0.2C1492.4,649.5,1492.5,649.5,1492.6,649.4z"/>
			</g>
			<g>
				<path class="st49" d="M1495.1,646.8c0.1-0.1,0.1-0.2,0.1-0.3c-0.1-3-7.3-5.3-8.1-5.5c-0.2-0.1-0.5,0.1-0.6,0.3
					c-0.1,0.2-0.1,0.5,0.2,0.5c2.1,0.7,7.6,2.8,7.7,4.9c0,0.2,0.2,0.4,0.5,0.3C1494.9,647,1495,646.9,1495.1,646.8z"/>
			</g>
		</g>
		<path class="st44" d="M1585.4,223.2c-2.1,16.9-2.9,41.7,1,59.5c4.9,19.2,5.3,7.4,33.8,48.8
			C1593.7,282.1,1584.3,311.1,1585.4,223.2z"/>
	</g>
</g>
<g>
	<path class="st2" d="M1191.6,126.9l4.9-25.4l-10.2-35.3h7.7l5,19.1c1.3,5.2,1.7,8,2.2,10.4h0.2c1.5-2.8,3.4-6.2,6.1-10.6l12.1-18.9
		h8.3l-24.2,35.3l-4.8,25.4H1191.6z"/>
	<path class="st2" d="M1246.8,124.4c-3.2,1.8-7.9,3.2-13.1,3.2c-10.8,0-15.2-7.6-15.2-16.9c0-12.7,8.8-28.3,22.3-28.3
		c7.7,0,11.6,4.9,11.6,10.8c0,11.2-11.8,14.6-26.6,14.4c-0.3,1.7-0.2,6,0.7,8.5c1.5,3.9,4.6,5.8,8.8,5.8c4.6,0,8-1.4,10.5-2.8
		L1246.8,124.4z M1239.8,88.2c-6.2,0-11.2,6.3-13.1,13.9c10.3,0.1,18.9-1.7,18.9-8.6C1245.6,90.1,1243.2,88.2,1239.8,88.2z"/>
	<path class="st2" d="M1281.6,126.9c0-2.6,0.5-6.2,0.9-10.3h-0.2c-4.6,8.5-10,11.2-15.2,11.2c-6.9,0-11.3-5.6-11.3-13.8
		c0-14.6,9.9-31.6,28.3-31.6c3.8,0,7.9,0.7,10.6,1.6l-4.7,23.3c-1.4,7.1-2,14.7-1.8,19.5H1281.6z M1286.6,88.7
		c-1-0.4-2.3-0.5-4.4-0.5c-10.8,0-18.9,13-19,24.4c-0.1,5,1.4,9.3,6.4,9.3c5.8,0,12.2-8.3,14.3-19L1286.6,88.7z"/>
	<path class="st2" d="M1298.5,126.9l12.1-63.4h7.2l-5.2,27.1h0.2c3.5-5,8.3-8.1,14.1-8.1c5,0,9.8,3.3,9.8,10.8
		c0,2.3-0.3,4.9-0.7,7.4l-5,26.3h-7.1l5-26.2c0.3-1.6,0.5-3.6,0.5-5.9c0-3.6-1.7-6.3-5.8-6.3c-5.3,0-11.8,6.7-13.5,15.7l-4.2,22.8
		H1298.5z"/>
	<path class="st2" d="M1342.6,122.7c0-3.1,2.3-5.9,5.4-5.9c3,0,4.8,2.3,4.8,5.1c0,3.1-2.3,5.8-5.5,5.8
		C1344.5,127.8,1342.6,125.5,1342.6,122.7z M1347.2,109.6l7.2-43.4h8.2l-9.5,43.4H1347.2z"/>
</g>
</svg>
